<svg width="621" height="94" viewBox="0 0 621 94" fill="none" xmlns="http://www.w3.org/2000/svg">
<path d="M137.872 5.03183C141.264 5.03183 143.872 5.76783 145.696 7.23983C147.552 8.71183 148.48 10.6638 148.48 13.0958C148.48 14.0558 148.336 15.0638 148.048 16.1198C147.152 19.3198 145.376 21.6878 142.72 23.2238C140.096 24.7598 136.768 25.5278 132.736 25.5278H127.792L126.16 31.3358C126.096 31.5278 126.064 31.7838 126.064 32.1038C126.064 32.5518 126.16 32.9198 126.352 33.2078C126.576 33.4958 126.896 33.8318 127.312 34.2158C127.664 34.5358 127.904 34.7758 128.032 34.9358C128.16 35.0958 128.224 35.2878 128.224 35.5118C128.224 36.0558 127.968 36.4398 127.456 36.6638C126.944 36.8878 126.192 36.9998 125.2 36.9998H113.152C112.32 36.9998 111.696 36.8558 111.28 36.5678C110.864 36.2478 110.72 35.8158 110.848 35.2718C110.912 34.9838 111.04 34.7598 111.232 34.5998C111.392 34.4078 111.648 34.1998 112 33.9758C112.544 33.6558 112.976 33.3198 113.296 32.9678C113.616 32.6158 113.872 32.0718 114.064 31.3358L119.92 10.6478C120.048 10.2318 120.112 9.83183 120.112 9.44783C120.112 9.09583 120.048 8.80783 119.92 8.58383C119.824 8.32783 119.68 8.03983 119.488 7.71983C119.2 7.30383 119.056 6.96783 119.056 6.71183C119.056 6.61583 119.088 6.43983 119.152 6.18383C119.28 5.76783 119.552 5.47983 119.968 5.31983C120.416 5.12783 121.088 5.03183 121.984 5.03183H137.872ZM136.624 15.2558C136.976 14.0718 137.152 13.0318 137.152 12.1358C137.152 10.2798 136.288 9.35183 134.56 9.35183H132.4L128.992 21.2078H131.104C132.448 21.2078 133.536 20.7918 134.368 19.9598C135.232 19.0958 135.984 17.5278 136.624 15.2558Z" fill="white"/>
<path d="M161.902 11.6078C165.582 11.6078 168.526 12.2958 170.734 13.6718C172.942 15.0158 174.046 17.0798 174.046 19.8638C174.046 20.9198 173.854 22.1198 173.47 23.4638L171.502 30.0878C171.47 30.2158 171.454 30.3758 171.454 30.5678C171.454 31.0798 171.662 31.3358 172.078 31.3358C172.462 31.3358 172.782 31.1758 173.038 30.8558C173.326 30.5038 173.518 30.3278 173.614 30.3278C173.774 30.3278 173.902 30.4398 173.998 30.6638C174.126 30.8878 174.19 31.1438 174.19 31.4318C174.222 32.2958 173.886 33.1758 173.182 34.0718C172.51 34.9678 171.598 35.7038 170.446 36.2798C169.294 36.8558 168.03 37.1438 166.654 37.1438C164.99 37.1438 163.566 36.8398 162.382 36.2318C161.198 35.6238 160.382 34.7278 159.934 33.5438C158.974 34.6958 157.838 35.5918 156.526 36.2318C155.214 36.8398 153.806 37.1438 152.302 37.1438C150.606 37.1438 149.182 36.8238 148.03 36.1838C146.878 35.5118 146.014 34.6638 145.438 33.6398C144.894 32.5838 144.622 31.4798 144.622 30.3278C144.622 29.8158 144.67 29.3198 144.766 28.8398C145.278 26.6318 146.382 24.9678 148.078 23.8478C149.806 22.7278 151.854 22.1678 154.222 22.1678C156.878 22.1678 159.486 22.5838 162.046 23.4158L163.246 20.2478C163.662 18.9038 163.87 17.8638 163.87 17.1278C163.838 16.3598 163.582 15.7838 163.102 15.3998C162.622 15.0158 161.886 14.8238 160.894 14.8238C161.086 15.3358 161.182 15.8638 161.182 16.4078C161.182 17.5918 160.734 18.6158 159.838 19.4798C158.942 20.3438 157.662 20.7758 155.998 20.7758C154.43 20.7758 153.198 20.4398 152.302 19.7678C151.438 19.0638 151.006 18.1998 151.006 17.1758C151.006 15.5758 151.902 14.2478 153.694 13.1918C155.486 12.1358 158.222 11.6078 161.902 11.6078ZM159.214 26.1518C158.318 26.1518 157.582 26.5038 157.006 27.2078C156.462 27.8798 156.19 28.6158 156.19 29.4158C156.19 29.9278 156.302 30.3438 156.526 30.6638C156.782 30.9838 157.134 31.1438 157.582 31.1438C157.998 31.1438 158.446 30.9838 158.926 30.6638C159.438 30.3118 159.806 29.7998 160.03 29.1278L161.038 26.2958C160.494 26.1998 159.886 26.1518 159.214 26.1518Z" fill="white"/>
<path d="M205.884 30.3758C205.82 30.5038 205.788 30.6958 205.788 30.9518C205.788 31.1758 205.836 31.3518 205.932 31.4798C206.06 31.6078 206.22 31.6718 206.412 31.6718C206.796 31.6718 207.116 31.5118 207.372 31.1918C207.66 30.8398 207.852 30.6638 207.948 30.6638C208.108 30.6638 208.236 30.7758 208.332 30.9998C208.428 31.1918 208.476 31.4318 208.476 31.7198C208.508 32.6478 208.204 33.5598 207.564 34.4558C206.924 35.3198 205.98 36.0398 204.732 36.6158C203.516 37.1598 202.044 37.4318 200.316 37.4318C198.204 37.4318 196.524 36.9518 195.276 35.9918C194.028 34.9998 193.388 33.6878 193.356 32.0558C193.356 30.8718 193.644 29.5438 194.22 28.0718L196.86 21.1598C197.02 20.7438 197.1 20.4078 197.1 20.1518C197.1 19.7358 196.956 19.4158 196.668 19.1918C196.412 18.9358 196.092 18.8078 195.708 18.8078C195.004 18.8078 194.332 19.1438 193.692 19.8158C193.052 20.4558 192.588 21.2558 192.3 22.2158L189.324 32.0078C189.196 32.3598 189.132 32.6958 189.132 33.0158C189.132 33.3998 189.212 33.7198 189.372 33.9758C189.532 34.1998 189.756 34.4398 190.044 34.6958C190.268 34.8878 190.428 35.0638 190.524 35.2238C190.62 35.3838 190.636 35.5758 190.572 35.7998C190.444 36.2158 190.14 36.5198 189.66 36.7118C189.18 36.9038 188.428 36.9998 187.404 36.9998H176.46C175.628 36.9998 175.036 36.8718 174.684 36.6158C174.3 36.3278 174.156 35.9598 174.252 35.5118C174.38 35.1278 174.716 34.7918 175.26 34.5038C175.74 34.2478 176.14 33.9438 176.46 33.5918C176.78 33.2398 177.052 32.6798 177.276 31.9118L181.548 18.0398C181.612 17.8798 181.644 17.6558 181.644 17.3678C181.644 17.0158 181.564 16.7438 181.404 16.5518C181.276 16.3598 181.052 16.1198 180.732 15.8318C180.412 15.5758 180.188 15.3518 180.06 15.1598C179.932 14.9678 179.916 14.7118 180.012 14.3918C180.204 13.6558 181.212 13.0158 183.036 12.4718C184.86 11.8958 186.764 11.6078 188.748 11.6078C190.348 11.6078 191.612 12.0558 192.54 12.9518C193.468 13.8158 193.884 15.0318 193.788 16.5998C195.1 14.7118 196.492 13.4158 197.964 12.7118C199.436 11.9758 201.036 11.6078 202.764 11.6078C204.716 11.6078 206.284 12.1998 207.468 13.3838C208.684 14.5678 209.292 16.1038 209.292 17.9918C209.292 18.9838 209.132 19.9598 208.812 20.9198L205.884 30.3758Z" fill="white"/>
<path d="M231.987 12.2318C232.595 12.2318 233.059 12.3598 233.379 12.6158C233.731 12.8718 233.907 13.2238 233.907 13.6718C233.907 13.7998 233.875 14.0238 233.811 14.3438C233.395 15.7518 232.435 16.4558 230.931 16.4558H228.147L224.547 28.3118C224.387 28.7918 224.307 29.2878 224.307 29.7998C224.307 30.3758 224.467 30.7758 224.787 30.9998C225.107 31.2238 225.555 31.3358 226.131 31.3358C226.643 31.3358 227.283 31.2718 228.051 31.1438C228.435 31.0478 228.771 30.9998 229.059 30.9998C229.283 30.9998 229.443 31.0798 229.539 31.2398C229.667 31.3678 229.731 31.5438 229.731 31.7678C229.763 32.4078 229.283 33.1918 228.291 34.1198C227.331 35.0158 226.019 35.7998 224.355 36.4718C222.691 37.1118 220.851 37.4318 218.835 37.4318C216.659 37.4318 214.915 36.9358 213.603 35.9438C212.291 34.9518 211.635 33.5918 211.635 31.8638C211.635 31.0638 211.763 30.2958 212.019 29.5598L215.091 20.0558C215.251 19.5118 215.331 19.0798 215.331 18.7598C215.331 18.1198 215.171 17.5758 214.851 17.1278C214.563 16.6798 214.147 16.2158 213.603 15.7358C213.123 15.2878 212.787 14.9198 212.595 14.6318C212.403 14.3118 212.355 13.9438 212.451 13.5278C212.579 13.1118 212.851 12.7918 213.267 12.5678C213.683 12.3438 214.339 12.2318 215.235 12.2318H217.923L220.947 9.20783C222.003 8.15183 222.963 7.41583 223.827 6.99983C224.723 6.58383 225.875 6.37583 227.283 6.37583C229.299 6.37583 230.307 7.14383 230.307 8.67983C230.307 9.15983 230.243 9.60783 230.115 10.0238L229.443 12.2318H231.987Z" fill="white"/>
<path d="M260.606 30.3758C260.542 30.6318 260.51 30.8238 260.51 30.9518C260.51 31.1758 260.558 31.3518 260.654 31.4798C260.782 31.6078 260.942 31.6718 261.134 31.6718C261.518 31.6718 261.838 31.5118 262.094 31.1918C262.382 30.8398 262.574 30.6638 262.67 30.6638C262.83 30.6638 262.958 30.7758 263.054 30.9998C263.182 31.1918 263.246 31.4318 263.246 31.7198C263.278 32.6158 262.958 33.5118 262.286 34.4078C261.614 35.2718 260.67 35.9918 259.454 36.5678C258.238 37.1438 256.878 37.4318 255.374 37.4318C253.486 37.4318 251.982 37.0478 250.862 36.2798C249.742 35.5118 249.022 34.5038 248.702 33.2558C247.55 34.5358 246.27 35.5118 244.862 36.1838C243.486 36.8238 242.078 37.1438 240.638 37.1438C238.398 37.1438 236.51 36.5998 234.974 35.5118C233.47 34.3918 232.718 32.8398 232.718 30.8558C232.718 29.9598 232.878 29.0318 233.198 28.0718L236.27 18.0398C236.366 17.7518 236.414 17.5118 236.414 17.3198C236.414 16.9678 236.334 16.6958 236.174 16.5038C236.014 16.2798 235.774 16.0558 235.454 15.8318C235.134 15.5758 234.91 15.3518 234.782 15.1598C234.654 14.9678 234.638 14.7118 234.734 14.3918C234.926 13.6558 235.934 13.0158 237.758 12.4718C239.582 11.8958 241.486 11.6078 243.47 11.6078C245.326 11.6078 246.686 11.9598 247.55 12.6638C248.414 13.3678 248.846 14.3278 248.846 15.5438C248.846 16.2798 248.734 16.9838 248.51 17.6558L245.486 27.6398C245.358 27.9918 245.294 28.3278 245.294 28.6478C245.294 29.0958 245.422 29.4318 245.678 29.6558C245.934 29.8798 246.27 29.9918 246.686 29.9918C247.294 29.9918 247.79 29.8158 248.174 29.4638C248.558 29.1118 248.942 28.5198 249.326 27.6878L252.254 18.0398C252.35 17.7518 252.398 17.5118 252.398 17.3198C252.398 16.9678 252.318 16.6958 252.158 16.5038C251.998 16.2798 251.774 16.0558 251.486 15.8318C251.166 15.5758 250.942 15.3518 250.814 15.1598C250.686 14.9678 250.67 14.7118 250.766 14.3918C250.926 13.6558 251.918 13.0158 253.742 12.4718C255.566 11.8958 257.47 11.6078 259.454 11.6078C261.31 11.6078 262.67 11.9598 263.534 12.6638C264.43 13.3678 264.878 14.3118 264.878 15.4958C264.878 16.1038 264.75 16.8238 264.494 17.6558L260.606 30.3758Z" fill="white"/>
<path d="M289.48 11.4158C291.848 11.4158 293.736 12.2638 295.144 13.9598C296.584 15.6558 297.304 17.8958 297.304 20.6798C297.304 22.1198 297.128 23.5278 296.776 24.9038C295.752 29.0318 293.992 32.1518 291.496 34.2638C289.032 36.3758 286.184 37.4318 282.952 37.4318C281.128 37.4318 279.544 37.1278 278.2 36.5198C276.888 35.8798 275.832 34.9838 275.032 33.8318L273.304 35.3198C272.632 35.8958 271.976 36.3278 271.336 36.6158C270.696 36.8718 269.96 36.9998 269.128 36.9998H267.016C266.216 36.9998 265.592 36.8398 265.144 36.5198C264.728 36.1678 264.52 35.6718 264.52 35.0318C264.52 34.7438 264.568 34.4078 264.664 34.0238L272.68 7.95983C272.776 7.67183 272.824 7.43183 272.824 7.23983C272.824 6.69583 272.488 6.18383 271.816 5.70383C271.496 5.41583 271.272 5.19183 271.144 5.03183C271.016 4.83983 271 4.59983 271.096 4.31183C271.32 3.57583 272.328 2.93583 274.12 2.39183C275.944 1.81583 277.848 1.52783 279.832 1.52783C281.688 1.52783 283.048 1.89583 283.912 2.63183C284.808 3.33583 285.256 4.29583 285.256 5.51183C285.256 6.18383 285.144 6.85583 284.92 7.52783L282.904 14.0558C284.76 12.2958 286.952 11.4158 289.48 11.4158ZM284.056 24.6158C284.696 22.4398 285.016 20.6798 285.016 19.3358C285.016 17.8638 284.584 17.1278 283.72 17.1278C282.952 17.1278 282.232 17.5278 281.56 18.3278L278.44 28.5038L278.152 29.4158C277.992 29.8958 277.912 30.3918 277.912 30.9038C277.912 32.0238 278.44 32.5838 279.496 32.5838C280.264 32.5838 281 32.0238 281.704 30.9038C282.408 29.7838 283.192 27.6878 284.056 24.6158Z" fill="white"/>
<path d="M313.756 11.3678C317.82 11.3678 320.764 12.0238 322.588 13.3358C324.412 14.6158 325.324 16.2638 325.324 18.2798C325.324 18.8878 325.26 19.4478 325.132 19.9598C324.652 22.0718 323.308 23.5918 321.1 24.5198C318.924 25.4158 316.348 25.8638 313.372 25.8638C311.868 25.8638 310.46 25.7678 309.148 25.5758C309.116 27.2398 309.564 28.4078 310.492 29.0798C311.42 29.7518 312.716 30.0878 314.38 30.0878C315.148 30.0878 315.884 30.0078 316.588 29.8478C317.292 29.6558 318.188 29.3838 319.276 29.0318C320.172 28.7118 320.78 28.5518 321.1 28.5518C321.452 28.5518 321.628 28.7598 321.628 29.1758C321.66 30.2958 321.244 31.4798 320.38 32.7278C319.516 33.9438 318.236 34.9838 316.54 35.8478C314.844 36.7118 312.796 37.1438 310.396 37.1438C306.844 37.1438 303.932 36.2478 301.66 34.4558C299.388 32.6638 298.252 30.0558 298.252 26.6318C298.252 25.6718 298.38 24.5518 298.636 23.2718C299.436 19.3358 301.18 16.3758 303.868 14.3918C306.588 12.3758 309.884 11.3678 313.756 11.3678ZM309.484 22.6958C309.612 22.7278 309.788 22.7438 310.012 22.7438C311.356 22.7438 312.38 22.1198 313.084 20.8718C313.788 19.6238 314.124 18.2318 314.092 16.6958C314.06 15.7998 313.804 15.3518 313.324 15.3518C312.972 15.3518 312.556 15.6398 312.076 16.2158C311.596 16.7598 311.116 17.5918 310.636 18.7118C310.188 19.8318 309.804 21.1598 309.484 22.6958Z" fill="white"/>
<path d="M350.225 11.3678C354.289 11.3678 357.233 12.0238 359.057 13.3358C360.881 14.6158 361.793 16.2638 361.793 18.2798C361.793 18.8878 361.729 19.4478 361.601 19.9598C361.121 22.0718 359.777 23.5918 357.569 24.5198C355.393 25.4158 352.817 25.8638 349.841 25.8638C348.337 25.8638 346.929 25.7678 345.617 25.5758C345.585 27.2398 346.033 28.4078 346.961 29.0798C347.889 29.7518 349.185 30.0878 350.849 30.0878C351.617 30.0878 352.353 30.0078 353.057 29.8478C353.761 29.6558 354.657 29.3838 355.745 29.0318C356.641 28.7118 357.249 28.5518 357.569 28.5518C357.921 28.5518 358.097 28.7598 358.097 29.1758C358.129 30.2958 357.713 31.4798 356.849 32.7278C355.985 33.9438 354.705 34.9838 353.009 35.8478C351.313 36.7118 349.265 37.1438 346.865 37.1438C343.313 37.1438 340.401 36.2478 338.129 34.4558C335.857 32.6638 334.721 30.0558 334.721 26.6318C334.721 25.6718 334.849 24.5518 335.105 23.2718C335.905 19.3358 337.649 16.3758 340.337 14.3918C343.057 12.3758 346.353 11.3678 350.225 11.3678ZM345.953 22.6958C346.081 22.7278 346.257 22.7438 346.481 22.7438C347.825 22.7438 348.849 22.1198 349.553 20.8718C350.257 19.6238 350.593 18.2318 350.561 16.6958C350.529 15.7998 350.273 15.3518 349.793 15.3518C349.441 15.3518 349.025 15.6398 348.545 16.2158C348.065 16.7598 347.585 17.5918 347.105 18.7118C346.657 19.8318 346.273 21.1598 345.953 22.6958Z" fill="white"/>
<path d="M390.524 30.3758C390.46 30.5038 390.428 30.6958 390.428 30.9518C390.428 31.1758 390.476 31.3518 390.572 31.4798C390.7 31.6078 390.86 31.6718 391.052 31.6718C391.436 31.6718 391.756 31.5118 392.012 31.1918C392.3 30.8398 392.492 30.6638 392.588 30.6638C392.748 30.6638 392.876 30.7758 392.972 30.9998C393.068 31.1918 393.116 31.4318 393.116 31.7198C393.148 32.6478 392.844 33.5598 392.204 34.4558C391.564 35.3198 390.62 36.0398 389.372 36.6158C388.156 37.1598 386.684 37.4318 384.956 37.4318C382.844 37.4318 381.164 36.9518 379.916 35.9918C378.668 34.9998 378.028 33.6878 377.996 32.0558C377.996 30.8718 378.284 29.5438 378.86 28.0718L381.5 21.1598C381.66 20.7438 381.74 20.4078 381.74 20.1518C381.74 19.7358 381.596 19.4158 381.308 19.1918C381.052 18.9358 380.732 18.8078 380.348 18.8078C379.644 18.8078 378.972 19.1438 378.332 19.8158C377.692 20.4558 377.228 21.2558 376.94 22.2158L373.964 32.0078C373.836 32.3598 373.772 32.6958 373.772 33.0158C373.772 33.3998 373.852 33.7198 374.012 33.9758C374.172 34.1998 374.396 34.4398 374.684 34.6958C374.908 34.8878 375.068 35.0638 375.164 35.2238C375.26 35.3838 375.276 35.5758 375.212 35.7998C375.084 36.2158 374.78 36.5198 374.3 36.7118C373.82 36.9038 373.068 36.9998 372.044 36.9998H361.1C360.268 36.9998 359.676 36.8718 359.324 36.6158C358.94 36.3278 358.796 35.9598 358.892 35.5118C359.02 35.1278 359.356 34.7918 359.9 34.5038C360.38 34.2478 360.78 33.9438 361.1 33.5918C361.42 33.2398 361.692 32.6798 361.916 31.9118L366.188 18.0398C366.252 17.8798 366.284 17.6558 366.284 17.3678C366.284 17.0158 366.204 16.7438 366.044 16.5518C365.916 16.3598 365.692 16.1198 365.372 15.8318C365.052 15.5758 364.828 15.3518 364.7 15.1598C364.572 14.9678 364.556 14.7118 364.652 14.3918C364.844 13.6558 365.852 13.0158 367.676 12.4718C369.5 11.8958 371.404 11.6078 373.388 11.6078C374.988 11.6078 376.252 12.0558 377.18 12.9518C378.108 13.8158 378.524 15.0318 378.428 16.5998C379.74 14.7118 381.132 13.4158 382.604 12.7118C384.076 11.9758 385.676 11.6078 387.404 11.6078C389.356 11.6078 390.924 12.1998 392.108 13.3838C393.324 14.5678 393.932 16.1038 393.932 17.9918C393.932 18.9838 393.772 19.9598 393.452 20.9198L390.524 30.3758Z" fill="white"/>
<path d="M421.485 37.2878C418.797 37.2878 416.381 36.7918 414.237 35.7998C412.093 34.8078 410.381 33.3518 409.101 31.4318C407.853 29.4798 407.229 27.1278 407.229 24.3758C407.229 22.4558 407.565 20.3758 408.237 18.1358C409.709 13.3358 411.933 9.87983 414.909 7.76783C417.885 5.62383 421.069 4.55183 424.461 4.55183C426.285 4.55183 427.901 4.82383 429.309 5.36783C430.717 5.91183 432.013 6.69583 433.197 7.71983L434.493 6.71183C435.357 6.03983 436.077 5.57583 436.653 5.31983C437.261 5.06383 437.933 4.93583 438.669 4.93583C439.469 4.93583 440.109 5.11183 440.589 5.46383C441.069 5.81583 441.309 6.32783 441.309 6.99983C441.309 7.35183 441.245 7.70383 441.117 8.05583L438.429 15.5438C438.141 16.4078 437.789 17.0158 437.373 17.3678C436.989 17.7198 436.397 17.8958 435.597 17.8958C434.765 17.8958 434.077 17.6078 433.533 17.0318C433.021 16.4238 432.429 15.3998 431.757 13.9598C430.989 12.4558 430.365 11.4638 429.885 10.9838C429.405 10.5038 428.701 10.2638 427.773 10.2638C426.461 10.2638 425.197 11.0798 423.981 12.7118C422.765 14.3118 421.661 16.7278 420.669 19.9598C419.837 22.6798 419.421 24.9518 419.421 26.7758C419.421 28.3758 419.725 29.5758 420.333 30.3758C420.941 31.1438 421.757 31.5278 422.781 31.5278C424.285 31.5278 425.517 31.1918 426.477 30.5198C427.469 29.8478 428.477 28.9358 429.501 27.7838C430.141 27.0798 430.653 26.5678 431.037 26.2478C431.453 25.8958 431.885 25.7198 432.333 25.7198C432.909 25.7198 433.517 26.0078 434.157 26.5838C434.797 27.1598 435.101 27.7358 435.069 28.3118C435.101 29.0158 434.525 30.1038 433.341 31.5758C432.189 33.0478 430.573 34.3758 428.493 35.5598C426.445 36.7118 424.109 37.2878 421.485 37.2878Z" fill="white"/>
<path d="M455.152 11.6078C458.832 11.6078 461.776 12.2958 463.984 13.6718C466.192 15.0158 467.296 17.0798 467.296 19.8638C467.296 20.9198 467.104 22.1198 466.72 23.4638L464.752 30.0878C464.72 30.2158 464.704 30.3758 464.704 30.5678C464.704 31.0798 464.912 31.3358 465.328 31.3358C465.712 31.3358 466.032 31.1758 466.288 30.8558C466.576 30.5038 466.768 30.3278 466.864 30.3278C467.024 30.3278 467.152 30.4398 467.248 30.6638C467.376 30.8878 467.44 31.1438 467.44 31.4318C467.472 32.2958 467.136 33.1758 466.432 34.0718C465.76 34.9678 464.848 35.7038 463.696 36.2798C462.544 36.8558 461.28 37.1438 459.904 37.1438C458.24 37.1438 456.816 36.8398 455.632 36.2318C454.448 35.6238 453.632 34.7278 453.184 33.5438C452.224 34.6958 451.088 35.5918 449.776 36.2318C448.464 36.8398 447.056 37.1438 445.552 37.1438C443.856 37.1438 442.432 36.8238 441.28 36.1838C440.128 35.5118 439.264 34.6638 438.688 33.6398C438.144 32.5838 437.872 31.4798 437.872 30.3278C437.872 29.8158 437.92 29.3198 438.016 28.8398C438.528 26.6318 439.632 24.9678 441.328 23.8478C443.056 22.7278 445.104 22.1678 447.472 22.1678C450.128 22.1678 452.736 22.5838 455.296 23.4158L456.496 20.2478C456.912 18.9038 457.12 17.8638 457.12 17.1278C457.088 16.3598 456.832 15.7838 456.352 15.3998C455.872 15.0158 455.136 14.8238 454.144 14.8238C454.336 15.3358 454.432 15.8638 454.432 16.4078C454.432 17.5918 453.984 18.6158 453.088 19.4798C452.192 20.3438 450.912 20.7758 449.248 20.7758C447.68 20.7758 446.448 20.4398 445.552 19.7678C444.688 19.0638 444.256 18.1998 444.256 17.1758C444.256 15.5758 445.152 14.2478 446.944 13.1918C448.736 12.1358 451.472 11.6078 455.152 11.6078ZM452.464 26.1518C451.568 26.1518 450.832 26.5038 450.256 27.2078C449.712 27.8798 449.44 28.6158 449.44 29.4158C449.44 29.9278 449.552 30.3438 449.776 30.6638C450.032 30.9838 450.384 31.1438 450.832 31.1438C451.248 31.1438 451.696 30.9838 452.176 30.6638C452.688 30.3118 453.056 29.7998 453.28 29.1278L454.288 26.2958C453.744 26.1998 453.136 26.1518 452.464 26.1518Z" fill="white"/>
<path d="M484.734 1.52783C486.59 1.52783 487.95 1.87983 488.814 2.58383C489.71 3.28783 490.158 4.24783 490.158 5.46383C490.158 6.16783 490.046 6.85583 489.822 7.52783L482.286 32.0078C482.19 32.3918 482.142 32.7278 482.142 33.0158C482.142 33.4318 482.222 33.7678 482.382 34.0238C482.542 34.2478 482.766 34.4718 483.054 34.6958C483.278 34.9198 483.438 35.1118 483.534 35.2718C483.63 35.3998 483.646 35.5758 483.582 35.7998C483.422 36.2158 483.102 36.5198 482.622 36.7118C482.142 36.9038 481.406 36.9998 480.414 36.9998H469.47C468.638 36.9998 468.03 36.8718 467.646 36.6158C467.262 36.3278 467.134 35.9598 467.262 35.5118C467.39 35.1278 467.726 34.7918 468.27 34.5038C468.75 34.2478 469.15 33.9438 469.47 33.5918C469.79 33.2398 470.062 32.6798 470.286 31.9118L477.582 7.95983C477.678 7.67183 477.726 7.43183 477.726 7.23983C477.726 6.88783 477.63 6.59983 477.438 6.37583C477.278 6.15183 477.054 5.92783 476.766 5.70383C476.446 5.44783 476.206 5.22383 476.046 5.03183C475.918 4.83983 475.902 4.58383 475.998 4.26383C476.19 3.52783 477.198 2.88783 479.022 2.34383C480.846 1.79983 482.75 1.52783 484.734 1.52783Z" fill="white"/>
<path d="M504.136 11.6078C507.816 11.6078 510.76 12.2958 512.968 13.6718C515.176 15.0158 516.28 17.0798 516.28 19.8638C516.28 20.9198 516.088 22.1198 515.704 23.4638L513.736 30.0878C513.704 30.2158 513.688 30.3758 513.688 30.5678C513.688 31.0798 513.896 31.3358 514.312 31.3358C514.696 31.3358 515.016 31.1758 515.272 30.8558C515.56 30.5038 515.752 30.3278 515.848 30.3278C516.008 30.3278 516.136 30.4398 516.232 30.6638C516.36 30.8878 516.424 31.1438 516.424 31.4318C516.456 32.2958 516.12 33.1758 515.416 34.0718C514.744 34.9678 513.832 35.7038 512.68 36.2798C511.528 36.8558 510.264 37.1438 508.888 37.1438C507.224 37.1438 505.8 36.8398 504.616 36.2318C503.432 35.6238 502.616 34.7278 502.168 33.5438C501.208 34.6958 500.072 35.5918 498.76 36.2318C497.448 36.8398 496.04 37.1438 494.536 37.1438C492.84 37.1438 491.416 36.8238 490.264 36.1838C489.112 35.5118 488.248 34.6638 487.672 33.6398C487.128 32.5838 486.856 31.4798 486.856 30.3278C486.856 29.8158 486.904 29.3198 487 28.8398C487.512 26.6318 488.616 24.9678 490.312 23.8478C492.04 22.7278 494.088 22.1678 496.456 22.1678C499.112 22.1678 501.72 22.5838 504.28 23.4158L505.48 20.2478C505.896 18.9038 506.104 17.8638 506.104 17.1278C506.072 16.3598 505.816 15.7838 505.336 15.3998C504.856 15.0158 504.12 14.8238 503.128 14.8238C503.32 15.3358 503.416 15.8638 503.416 16.4078C503.416 17.5918 502.968 18.6158 502.072 19.4798C501.176 20.3438 499.896 20.7758 498.232 20.7758C496.664 20.7758 495.432 20.4398 494.536 19.7678C493.672 19.0638 493.24 18.1998 493.24 17.1758C493.24 15.5758 494.136 14.2478 495.928 13.1918C497.72 12.1358 500.456 11.6078 504.136 11.6078ZM501.448 26.1518C500.552 26.1518 499.816 26.5038 499.24 27.2078C498.696 27.8798 498.424 28.6158 498.424 29.4158C498.424 29.9278 498.536 30.3438 498.76 30.6638C499.016 30.9838 499.368 31.1438 499.816 31.1438C500.232 31.1438 500.68 30.9838 501.16 30.6638C501.672 30.3118 502.04 29.7998 502.264 29.1278L503.272 26.2958C502.728 26.1998 502.12 26.1518 501.448 26.1518Z" fill="white"/>
<path d="M537.99 1.52783C541.414 1.52783 543.974 2.05583 545.67 3.11183C547.398 4.13583 548.262 5.39983 548.262 6.90383C548.262 8.11983 547.75 9.06383 546.726 9.73583C545.734 10.3758 544.422 10.6958 542.79 10.6958C541.286 10.6958 540.118 10.3278 539.286 9.59183C538.454 8.85583 538.038 7.94383 538.038 6.85583C538.038 6.18383 538.246 5.47983 538.662 4.74383C537.702 4.74383 536.902 4.98383 536.262 5.46383C535.622 5.91183 535.126 6.69583 534.774 7.81583C534.582 8.51983 534.486 9.17583 534.486 9.78383C534.486 10.5518 534.614 11.1598 534.87 11.6078C535.158 12.0238 535.558 12.2318 536.07 12.2318H538.902C540.566 12.2318 541.398 12.7438 541.398 13.7678C541.398 13.8958 541.366 14.0878 541.302 14.3438C541.11 15.0478 540.71 15.5758 540.102 15.9278C539.526 16.2798 538.646 16.4558 537.462 16.4558H536.022L531.27 32.0078C531.174 32.3918 531.126 32.7278 531.126 33.0158C531.126 33.4318 531.206 33.7678 531.366 34.0238C531.526 34.2478 531.75 34.4718 532.038 34.6958C532.262 34.9198 532.422 35.1118 532.518 35.2718C532.614 35.3998 532.63 35.5758 532.566 35.7998C532.406 36.2158 532.086 36.5198 531.606 36.7118C531.126 36.9038 530.39 36.9998 529.398 36.9998H518.454C517.622 36.9998 517.014 36.8718 516.63 36.6158C516.246 36.3278 516.118 35.9598 516.246 35.5118C516.374 35.1278 516.71 34.7918 517.254 34.5038C517.734 34.2478 518.134 33.9438 518.454 33.5918C518.774 33.2398 519.046 32.6798 519.27 31.9118L523.014 19.6238C523.174 19.1438 523.254 18.6478 523.254 18.1358C523.254 17.4958 523.11 16.9998 522.822 16.6478C522.566 16.2638 522.166 15.8478 521.622 15.3998C521.27 15.1118 520.998 14.8718 520.806 14.6798C520.646 14.4558 520.566 14.1998 520.566 13.9118C520.534 13.3038 520.742 12.8718 521.19 12.6158C521.67 12.3598 522.566 12.2318 523.878 12.2318H525.078C524.854 11.4318 524.742 10.6318 524.742 9.83183C524.742 9.03183 524.886 8.19983 525.174 7.33583C525.782 5.70383 527.078 4.32783 529.062 3.20783C531.078 2.08783 534.054 1.52783 537.99 1.52783Z" fill="white"/>
<path d="M556.951 11.6078C561.303 11.6078 564.503 12.4878 566.551 14.2478C568.631 16.0078 569.671 18.3118 569.671 21.1598C569.671 22.1198 569.543 23.1918 569.287 24.3758C568.679 26.9998 567.543 29.3038 565.879 31.2878C564.215 33.2398 562.167 34.7598 559.735 35.8478C557.335 36.9038 554.727 37.4318 551.911 37.4318C547.463 37.4318 544.167 36.5518 542.023 34.7918C539.911 32.9998 538.855 30.6318 538.855 27.6878C538.855 26.6958 538.983 25.5918 539.239 24.3758C539.847 21.8798 540.999 19.6718 542.695 17.7518C544.423 15.7998 546.519 14.2958 548.983 13.2398C551.479 12.1518 554.135 11.6078 556.951 11.6078ZM556.807 15.8798C556.135 15.8798 555.415 16.4878 554.647 17.7038C553.911 18.8878 553.031 21.1438 552.007 24.4718C550.983 27.7998 550.471 30.1358 550.471 31.4798C550.471 32.1838 550.583 32.6638 550.807 32.9198C551.031 33.1438 551.335 33.2558 551.719 33.2558C552.391 33.3198 553.079 32.7438 553.783 31.5278C554.519 30.3118 555.431 27.9438 556.519 24.4238C557.511 21.3198 558.007 19.0638 558.007 17.6558C558.007 16.9838 557.895 16.5198 557.671 16.2638C557.479 16.0078 557.191 15.8798 556.807 15.8798Z" fill="white"/>
<path d="M598.387 30.3758C598.323 30.6318 598.291 30.8238 598.291 30.9518C598.291 31.1758 598.339 31.3518 598.435 31.4798C598.563 31.6078 598.723 31.6718 598.915 31.6718C599.299 31.6718 599.619 31.5118 599.875 31.1918C600.163 30.8398 600.355 30.6638 600.451 30.6638C600.611 30.6638 600.739 30.7758 600.835 30.9998C600.963 31.1918 601.027 31.4318 601.027 31.7198C601.059 32.6158 600.739 33.5118 600.067 34.4078C599.395 35.2718 598.451 35.9918 597.235 36.5678C596.019 37.1438 594.659 37.4318 593.155 37.4318C591.267 37.4318 589.763 37.0478 588.643 36.2798C587.523 35.5118 586.803 34.5038 586.483 33.2558C585.331 34.5358 584.051 35.5118 582.643 36.1838C581.267 36.8238 579.859 37.1438 578.419 37.1438C576.179 37.1438 574.291 36.5998 572.755 35.5118C571.251 34.3918 570.499 32.8398 570.499 30.8558C570.499 29.9598 570.659 29.0318 570.979 28.0718L574.051 18.0398C574.147 17.7518 574.195 17.5118 574.195 17.3198C574.195 16.9678 574.115 16.6958 573.955 16.5038C573.795 16.2798 573.555 16.0558 573.235 15.8318C572.915 15.5758 572.691 15.3518 572.563 15.1598C572.435 14.9678 572.419 14.7118 572.515 14.3918C572.707 13.6558 573.715 13.0158 575.539 12.4718C577.363 11.8958 579.267 11.6078 581.251 11.6078C583.107 11.6078 584.467 11.9598 585.331 12.6638C586.195 13.3678 586.627 14.3278 586.627 15.5438C586.627 16.2798 586.515 16.9838 586.291 17.6558L583.267 27.6398C583.139 27.9918 583.075 28.3278 583.075 28.6478C583.075 29.0958 583.203 29.4318 583.459 29.6558C583.715 29.8798 584.051 29.9918 584.467 29.9918C585.075 29.9918 585.571 29.8158 585.955 29.4638C586.339 29.1118 586.723 28.5198 587.107 27.6878L590.035 18.0398C590.131 17.7518 590.179 17.5118 590.179 17.3198C590.179 16.9678 590.099 16.6958 589.939 16.5038C589.779 16.2798 589.555 16.0558 589.267 15.8318C588.947 15.5758 588.723 15.3518 588.595 15.1598C588.467 14.9678 588.451 14.7118 588.547 14.3918C588.707 13.6558 589.699 13.0158 591.523 12.4718C593.347 11.8958 595.251 11.6078 597.235 11.6078C599.091 11.6078 600.451 11.9598 601.315 12.6638C602.211 13.3678 602.659 14.3118 602.659 15.4958C602.659 16.1038 602.531 16.8238 602.275 17.6558L598.387 30.3758Z" fill="white"/>
<path d="M113.944 84.9998V83.3438L115.78 83.1278C116.236 83.0558 116.536 82.8998 116.68 82.6598C116.824 82.3958 116.896 81.9278 116.896 81.2558V63.0038C116.896 62.3798 116.812 61.9598 116.644 61.7438C116.5 61.5038 116.188 61.3598 115.708 61.3118L113.944 61.0958V59.4398H124.888V61.0958L123.016 61.3118C122.608 61.3598 122.32 61.5158 122.152 61.7798C122.008 62.0198 121.936 62.4758 121.936 63.1478V81.3998C121.936 82.0238 122.008 82.4558 122.152 82.6958C122.296 82.9118 122.608 83.0558 123.088 83.1278L124.888 83.3438V84.9998H113.944Z" fill="white"/>
<path d="M128.78 84.9998V83.3438L130.616 83.1278C131.072 83.0558 131.372 82.8998 131.516 82.6598C131.66 82.3958 131.732 81.9278 131.732 81.2558V63.0038C131.732 62.3798 131.648 61.9598 131.48 61.7438C131.336 61.5038 131.024 61.3598 130.544 61.3118L128.78 61.0958V59.4398H139.724V61.0958L137.852 61.3118C137.444 61.3598 137.156 61.5158 136.988 61.7798C136.844 62.0198 136.772 62.4758 136.772 63.1478V81.3998C136.772 82.0238 136.844 82.4558 136.988 82.6958C137.132 82.9118 137.444 83.0558 137.924 83.1278L139.724 83.3438V84.9998H128.78Z" fill="white"/>
<path d="M143.616 84.9998V83.3438L145.452 83.1278C145.908 83.0558 146.208 82.8998 146.352 82.6598C146.496 82.3958 146.568 81.9278 146.568 81.2558V63.0038C146.568 62.3798 146.484 61.9598 146.316 61.7438C146.172 61.5038 145.86 61.3598 145.38 61.3118L143.616 61.0958V59.4398H154.56V61.0958L152.688 61.3118C152.28 61.3598 151.992 61.5158 151.824 61.7798C151.68 62.0198 151.608 62.4758 151.608 63.1478V81.3998C151.608 82.0238 151.68 82.4558 151.824 82.6958C151.968 82.9118 152.28 83.0558 152.76 83.1278L154.56 83.3438V84.9998H143.616Z" fill="white"/>
<path d="M171.92 85.5038C170.624 85.5038 169.436 85.2998 168.356 84.8918C167.3 84.4838 166.46 83.9078 165.836 83.1638C165.212 82.3958 164.9 81.5438 164.9 80.6078C164.9 79.9118 165.02 79.3118 165.26 78.8078C165.524 78.3038 165.884 77.9078 166.34 77.6198C166.82 77.3318 167.36 77.1878 167.96 77.1878C168.752 77.1878 169.364 77.3558 169.796 77.6918C170.252 78.0278 170.48 78.4838 170.48 79.0598C170.48 79.5398 170.348 80.0558 170.084 80.6078C169.82 81.1358 169.448 81.7598 168.968 82.4798C169.304 82.7438 169.724 82.9718 170.228 83.1638C170.756 83.3318 171.296 83.4158 171.848 83.4158C172.64 83.4158 173.288 83.2238 173.792 82.8398C174.296 82.4558 174.656 81.8678 174.872 81.0758C175.112 80.2598 175.232 79.2158 175.232 77.9438V63.1118C175.232 62.4878 175.16 62.0558 175.016 61.8158C174.872 61.5758 174.548 61.4318 174.044 61.3838L171.74 61.1318V59.4398H183.296V61.0958L181.388 61.3118C180.956 61.3598 180.656 61.5038 180.488 61.7438C180.344 61.9838 180.272 62.4398 180.272 63.1118V76.5398C180.272 79.4678 179.54 81.6998 178.076 83.2358C176.636 84.7478 174.584 85.5038 171.92 85.5038Z" fill="white"/>
<path d="M194.131 85.5038C192.211 85.5038 190.555 85.1318 189.163 84.3878C187.771 83.6438 186.703 82.5758 185.959 81.1838C185.215 79.7918 184.843 78.1238 184.843 76.1798C184.843 73.9958 185.239 72.1598 186.031 70.6718C186.847 69.1598 187.999 68.0198 189.487 67.2518C190.975 66.4598 192.715 66.0638 194.707 66.0638C196.531 66.0638 198.127 66.4238 199.495 67.1438C200.863 67.8398 201.919 68.8838 202.663 70.2758C203.431 71.6438 203.815 73.3238 203.815 75.3158C203.815 77.4278 203.419 79.2518 202.627 80.7878C201.835 82.2998 200.719 83.4638 199.279 84.2798C197.839 85.0958 196.123 85.5038 194.131 85.5038ZM194.635 83.4158C195.571 83.4158 196.327 83.1638 196.903 82.6598C197.503 82.1558 197.947 81.3638 198.235 80.2838C198.547 79.1798 198.703 77.7998 198.703 76.1438C198.703 74.7278 198.595 73.5158 198.379 72.5078C198.163 71.4758 197.851 70.6358 197.443 69.9878C197.059 69.3398 196.591 68.8598 196.039 68.5478C195.487 68.2358 194.851 68.0798 194.131 68.0798C193.243 68.0798 192.475 68.3198 191.827 68.7998C191.203 69.2798 190.723 70.0358 190.387 71.0678C190.075 72.0758 189.919 73.4078 189.919 75.0638C189.919 76.9598 190.099 78.5318 190.459 79.7798C190.843 81.0038 191.383 81.9158 192.079 82.5158C192.799 83.1158 193.651 83.4158 194.635 83.4158Z" fill="white"/>
<path d="M206.537 84.9998V83.3798L208.121 83.1278C208.505 83.0558 208.745 82.9118 208.841 82.6958C208.961 82.4558 209.021 82.0238 209.021 81.3998V70.8158C209.021 70.0238 208.949 69.4838 208.805 69.1958C208.685 68.8838 208.349 68.6918 207.797 68.6198L206.249 68.4038L206.429 66.7118L212.765 66.3158L213.197 66.6038L213.413 70.0238H213.521C214.097 68.7518 214.865 67.7798 215.825 67.1078C216.785 66.4118 217.841 66.0638 218.993 66.0638C220.217 66.0638 221.189 66.3998 221.909 67.0718C222.629 67.7438 222.989 68.6318 222.989 69.7358C222.989 70.4078 222.881 70.9838 222.665 71.4638C222.473 71.9198 222.161 72.2798 221.729 72.5438C221.321 72.8078 220.805 72.9398 220.181 72.9398C219.365 72.9398 218.753 72.7718 218.345 72.4358C217.961 72.0758 217.769 71.6438 217.769 71.1398C217.769 70.9238 217.793 70.7078 217.841 70.4918C217.913 70.2518 218.021 69.9878 218.165 69.6998C218.309 69.4118 218.501 69.0638 218.741 68.6558C218.189 68.4398 217.625 68.4158 217.049 68.5838C216.473 68.7278 215.933 69.0398 215.429 69.5198C214.949 69.9998 214.553 70.5878 214.241 71.2838C213.953 71.9798 213.809 72.7598 213.809 73.6238V81.4718C213.809 82.0238 213.857 82.4198 213.953 82.6598C214.073 82.8758 214.337 83.0078 214.745 83.0558L217.517 83.3798V84.9998H206.537Z" fill="white"/>
<path d="M224.924 84.9998V83.3798L226.508 83.1278C226.868 83.0798 227.108 82.9478 227.228 82.7318C227.348 82.4918 227.408 82.0598 227.408 81.4358V70.7798C227.408 69.9638 227.336 69.4118 227.192 69.1238C227.048 68.8358 226.712 68.6558 226.184 68.5838L224.636 68.4038L224.816 66.7118L231.224 66.3158L231.656 66.6038L231.8 69.9518H231.908C232.484 68.7278 233.324 67.7798 234.428 67.1078C235.532 66.4118 236.78 66.0638 238.172 66.0638C239.492 66.0638 240.584 66.3158 241.448 66.8198C242.336 67.2998 242.996 68.0078 243.428 68.9438C243.86 69.8558 244.076 70.9838 244.076 72.3278V81.6878C244.076 82.2158 244.148 82.5878 244.292 82.8038C244.436 82.9958 244.736 83.1158 245.192 83.1638L246.668 83.3798V84.9998H237.02V83.4158L238.316 83.1998C238.748 83.1278 239.024 82.9958 239.144 82.8038C239.264 82.5878 239.324 82.2158 239.324 81.6878V73.0838C239.324 72.0278 239.228 71.1998 239.036 70.5998C238.844 69.9758 238.532 69.5318 238.1 69.2678C237.668 69.0038 237.08 68.8718 236.336 68.8718C235.52 68.8718 234.8 69.0518 234.176 69.4118C233.552 69.7718 233.06 70.2998 232.7 70.9958C232.364 71.6678 232.196 72.4958 232.196 73.4798V81.5798C232.196 82.1078 232.244 82.4918 232.34 82.7318C232.46 82.9478 232.7 83.0798 233.06 83.1278L234.608 83.4158V84.9998H224.924Z" fill="white"/>
<path d="M254.402 85.5038C252.77 85.5038 251.486 85.0718 250.55 84.2078C249.614 83.3198 249.146 82.1198 249.146 80.6078C249.146 79.2878 249.482 78.2318 250.154 77.4398C250.85 76.6238 251.954 76.0118 253.466 75.6038C254.978 75.1958 256.982 74.9438 259.478 74.8478V71.7158C259.478 70.7798 259.37 70.0238 259.154 69.4478C258.938 68.8478 258.578 68.4158 258.074 68.1518C257.594 67.8638 256.946 67.7198 256.13 67.7198C255.482 67.7198 254.834 67.8158 254.186 68.0078C253.562 68.1998 253.082 68.4638 252.746 68.7998C253.058 69.2318 253.31 69.6038 253.502 69.9158C253.694 70.2278 253.826 70.4918 253.898 70.7078C253.97 70.9238 254.006 71.1158 254.006 71.2838C254.006 71.7878 253.79 72.2078 253.358 72.5438C252.95 72.8798 252.386 73.0478 251.666 73.0478C250.898 73.0478 250.31 72.8678 249.902 72.5078C249.518 72.1238 249.326 71.6078 249.326 70.9598C249.326 70.0958 249.65 69.2918 250.298 68.5478C250.97 67.8038 251.87 67.2038 252.998 66.7478C254.15 66.2918 255.446 66.0638 256.886 66.0638C258.542 66.0638 259.91 66.3038 260.99 66.7838C262.094 67.2638 262.91 68.0078 263.438 69.0158C263.99 69.9998 264.266 71.2718 264.266 72.8318V81.2558C264.266 81.8078 264.386 82.2278 264.626 82.5158C264.866 82.7798 265.226 82.9118 265.706 82.9118C265.97 82.9118 266.222 82.8878 266.462 82.8398C266.726 82.7678 267.002 82.6838 267.29 82.5878L267.65 83.8478C267.146 84.3758 266.534 84.7838 265.814 85.0718C265.094 85.3598 264.398 85.5038 263.726 85.5038C262.574 85.5038 261.686 85.2278 261.062 84.6758C260.438 84.0998 260.054 83.3078 259.91 82.2998C259.526 82.9958 259.07 83.5838 258.542 84.0638C258.038 84.5198 257.438 84.8678 256.742 85.1078C256.07 85.3718 255.29 85.5038 254.402 85.5038ZM256.382 82.9838C257.006 82.9838 257.546 82.8518 258.002 82.5878C258.458 82.2998 258.818 81.9038 259.082 81.3998C259.346 80.8958 259.478 80.3318 259.478 79.7078V76.4678C258.206 76.4918 257.15 76.6238 256.31 76.8638C255.494 77.1038 254.894 77.4878 254.51 78.0158C254.126 78.5438 253.934 79.2398 253.934 80.1038C253.934 81.0158 254.138 81.7238 254.546 82.2278C254.978 82.7318 255.59 82.9838 256.382 82.9838Z" fill="white"/>
<path d="M276.569 85.5038C274.961 85.5038 273.581 85.1558 272.429 84.4598C271.301 83.7398 270.437 82.6958 269.837 81.3278C269.261 79.9598 268.973 78.2918 268.973 76.3238C268.973 74.2118 269.333 72.3878 270.053 70.8518C270.773 69.3158 271.793 68.1398 273.113 67.3238C274.457 66.4838 276.065 66.0638 277.937 66.0638C278.753 66.0638 279.533 66.1718 280.277 66.3878C281.021 66.5798 281.669 66.8438 282.221 67.1798V61.5278C282.221 60.7598 282.125 60.2558 281.933 60.0158C281.765 59.7518 281.357 59.5838 280.709 59.5118L279.197 59.2958L279.377 57.6398L286.577 57.3878L286.973 57.7838V81.5798C286.973 82.1558 287.045 82.5518 287.189 82.7678C287.333 82.9598 287.657 83.1038 288.161 83.1998L289.673 83.4158V85.0358L282.977 85.3238L282.545 82.3358H282.401C281.993 82.9838 281.501 83.5478 280.925 84.0278C280.373 84.5078 279.737 84.8678 279.017 85.1078C278.297 85.3718 277.481 85.5038 276.569 85.5038ZM278.153 82.8398C278.969 82.8398 279.677 82.6598 280.277 82.2998C280.877 81.9398 281.345 81.3998 281.681 80.6798C282.041 79.9598 282.221 79.1078 282.221 78.1238V69.6638C281.669 69.2558 281.057 68.9318 280.385 68.6918C279.737 68.4518 279.053 68.3318 278.333 68.3318C277.349 68.3318 276.533 68.5958 275.885 69.1238C275.261 69.6518 274.793 70.4678 274.481 71.5718C274.169 72.6758 274.013 74.1038 274.013 75.8558C274.013 77.4638 274.169 78.7838 274.481 79.8158C274.793 80.8478 275.261 81.6158 275.885 82.1198C276.509 82.5998 277.265 82.8398 278.153 82.8398Z" fill="white"/>
<path d="M297.363 85.5038C295.731 85.5038 294.447 85.0718 293.511 84.2078C292.575 83.3198 292.107 82.1198 292.107 80.6078C292.107 79.2878 292.443 78.2318 293.115 77.4398C293.811 76.6238 294.915 76.0118 296.427 75.6038C297.939 75.1958 299.943 74.9438 302.439 74.8478V71.7158C302.439 70.7798 302.331 70.0238 302.115 69.4478C301.899 68.8478 301.539 68.4158 301.035 68.1518C300.555 67.8638 299.907 67.7198 299.091 67.7198C298.443 67.7198 297.795 67.8158 297.147 68.0078C296.523 68.1998 296.043 68.4638 295.707 68.7998C296.019 69.2318 296.271 69.6038 296.463 69.9158C296.655 70.2278 296.787 70.4918 296.859 70.7078C296.931 70.9238 296.967 71.1158 296.967 71.2838C296.967 71.7878 296.751 72.2078 296.319 72.5438C295.911 72.8798 295.347 73.0478 294.627 73.0478C293.859 73.0478 293.271 72.8678 292.863 72.5078C292.479 72.1238 292.287 71.6078 292.287 70.9598C292.287 70.0958 292.611 69.2918 293.259 68.5478C293.931 67.8038 294.831 67.2038 295.959 66.7478C297.111 66.2918 298.407 66.0638 299.847 66.0638C301.503 66.0638 302.871 66.3038 303.951 66.7838C305.055 67.2638 305.871 68.0078 306.399 69.0158C306.951 69.9998 307.227 71.2718 307.227 72.8318V81.2558C307.227 81.8078 307.347 82.2278 307.587 82.5158C307.827 82.7798 308.187 82.9118 308.667 82.9118C308.931 82.9118 309.183 82.8878 309.423 82.8398C309.687 82.7678 309.963 82.6838 310.251 82.5878L310.611 83.8478C310.107 84.3758 309.495 84.7838 308.775 85.0718C308.055 85.3598 307.359 85.5038 306.687 85.5038C305.535 85.5038 304.647 85.2278 304.023 84.6758C303.399 84.0998 303.015 83.3078 302.871 82.2998C302.487 82.9958 302.031 83.5838 301.503 84.0638C300.999 84.5198 300.399 84.8678 299.703 85.1078C299.031 85.3718 298.251 85.5038 297.363 85.5038ZM299.343 82.9838C299.967 82.9838 300.507 82.8518 300.963 82.5878C301.419 82.2998 301.779 81.9038 302.043 81.3998C302.307 80.8958 302.439 80.3318 302.439 79.7078V76.4678C301.167 76.4918 300.111 76.6238 299.271 76.8638C298.455 77.1038 297.855 77.4878 297.471 78.0158C297.087 78.5438 296.895 79.2398 296.895 80.1038C296.895 81.0158 297.099 81.7238 297.507 82.2278C297.939 82.7318 298.551 82.9838 299.343 82.9838Z" fill="white"/>
<path d="M312.652 85.5398L312.112 79.0238L314.02 78.9158C314.38 79.9958 314.812 80.8838 315.316 81.5798C315.844 82.2518 316.444 82.7438 317.116 83.0558C317.812 83.3678 318.568 83.5238 319.384 83.5238C320.44 83.5238 321.256 83.2718 321.832 82.7678C322.432 82.2398 322.732 81.5198 322.732 80.6078C322.732 80.0318 322.576 79.5758 322.264 79.2398C321.952 78.8798 321.484 78.5678 320.86 78.3038C320.236 78.0398 319.444 77.7878 318.484 77.5478C317.596 77.3078 316.78 77.0438 316.036 76.7558C315.292 76.4438 314.644 76.0838 314.092 75.6758C313.564 75.2438 313.144 74.7158 312.832 74.0918C312.544 73.4438 312.4 72.6758 312.4 71.7878C312.4 70.6118 312.664 69.6038 313.192 68.7638C313.744 67.8998 314.524 67.2398 315.532 66.7838C316.54 66.3038 317.716 66.0638 319.06 66.0638C319.972 66.0638 320.8 66.1958 321.544 66.4598C322.312 66.6998 322.948 66.9998 323.452 67.3598L323.812 66.0638H325.324L325.756 72.0398L323.848 71.8958C323.464 70.5758 322.876 69.5678 322.084 68.8718C321.292 68.1758 320.332 67.8278 319.204 67.8278C318.244 67.8278 317.488 68.0438 316.936 68.4758C316.384 68.8838 316.108 69.4958 316.108 70.3118C316.108 70.8638 316.252 71.3198 316.54 71.6798C316.852 72.0398 317.32 72.3518 317.944 72.6158C318.592 72.8558 319.372 73.1078 320.284 73.3718C321.244 73.6358 322.096 73.9238 322.84 74.2358C323.608 74.5478 324.256 74.9318 324.784 75.3878C325.336 75.8198 325.756 76.3478 326.044 76.9718C326.332 77.5958 326.476 78.3518 326.476 79.2398C326.476 80.5118 326.176 81.6158 325.576 82.5518C325 83.4878 324.184 84.2198 323.128 84.7478C322.072 85.2518 320.848 85.5038 319.456 85.5038C318.472 85.5038 317.56 85.3838 316.72 85.1438C315.904 84.9038 315.184 84.5678 314.56 84.1358L314.164 85.5398H312.652Z" fill="white"/>
<path d="M343.999 85.5038C342.391 85.5038 341.011 85.1558 339.859 84.4598C338.731 83.7398 337.867 82.6958 337.267 81.3278C336.691 79.9598 336.403 78.2918 336.403 76.3238C336.403 74.2118 336.763 72.3878 337.483 70.8518C338.203 69.3158 339.223 68.1398 340.543 67.3238C341.887 66.4838 343.495 66.0638 345.367 66.0638C346.183 66.0638 346.963 66.1718 347.707 66.3878C348.451 66.5798 349.099 66.8438 349.651 67.1798V61.5278C349.651 60.7598 349.555 60.2558 349.363 60.0158C349.195 59.7518 348.787 59.5838 348.139 59.5118L346.627 59.2958L346.807 57.6398L354.007 57.3878L354.403 57.7838V81.5798C354.403 82.1558 354.475 82.5518 354.619 82.7678C354.763 82.9598 355.087 83.1038 355.591 83.1998L357.103 83.4158V85.0358L350.407 85.3238L349.975 82.3358H349.831C349.423 82.9838 348.931 83.5478 348.355 84.0278C347.803 84.5078 347.167 84.8678 346.447 85.1078C345.727 85.3718 344.911 85.5038 343.999 85.5038ZM345.583 82.8398C346.399 82.8398 347.107 82.6598 347.707 82.2998C348.307 81.9398 348.775 81.3998 349.111 80.6798C349.471 79.9598 349.651 79.1078 349.651 78.1238V69.6638C349.099 69.2558 348.487 68.9318 347.815 68.6918C347.167 68.4518 346.483 68.3318 345.763 68.3318C344.779 68.3318 343.963 68.5958 343.315 69.1238C342.691 69.6518 342.223 70.4678 341.911 71.5718C341.599 72.6758 341.443 74.1038 341.443 75.8558C341.443 77.4638 341.599 78.7838 341.911 79.8158C342.223 80.8478 342.691 81.6158 343.315 82.1198C343.939 82.5998 344.695 82.8398 345.583 82.8398Z" fill="white"/>
<path d="M368.182 85.5038C366.31 85.5038 364.702 85.1318 363.358 84.3878C362.014 83.6198 360.982 82.5398 360.262 81.1478C359.566 79.7318 359.218 78.0638 359.218 76.1438C359.218 74.0318 359.614 72.2318 360.406 70.7438C361.198 69.2318 362.302 68.0798 363.718 67.2878C365.134 66.4718 366.766 66.0638 368.614 66.0638C370.078 66.0638 371.35 66.3398 372.43 66.8918C373.534 67.4198 374.386 68.1878 374.986 69.1958C375.586 70.2038 375.886 71.3918 375.886 72.7598C375.886 73.2398 375.862 73.7438 375.814 74.2718C375.766 74.7758 375.682 75.2798 375.562 75.7838H364.222C364.246 77.1518 364.474 78.3158 364.906 79.2758C365.338 80.2118 365.95 80.9198 366.742 81.3998C367.534 81.8558 368.458 82.0838 369.514 82.0838C370.546 82.0838 371.494 81.9158 372.358 81.5798C373.246 81.2438 374.11 80.7158 374.95 79.9958L376.102 81.2198C375.214 82.5638 374.086 83.6198 372.718 84.3878C371.35 85.1318 369.838 85.5038 368.182 85.5038ZM364.222 73.9118H371.134C371.182 73.6238 371.206 73.3358 371.206 73.0478C371.23 72.7598 371.242 72.4598 371.242 72.1478C371.242 70.6838 370.99 69.6158 370.486 68.9438C370.006 68.2478 369.274 67.8998 368.29 67.8998C367.474 67.8998 366.778 68.1158 366.202 68.5478C365.65 68.9798 365.206 69.6398 364.87 70.5278C364.534 71.4158 364.318 72.5438 364.222 73.9118Z" fill="white"/>
<path d="M394.861 85.5038C393.061 85.5038 391.501 85.1318 390.181 84.3878C388.861 83.6198 387.841 82.5398 387.121 81.1478C386.425 79.7318 386.077 78.0518 386.077 76.1078C386.077 74.0918 386.461 72.3398 387.229 70.8518C387.997 69.3398 389.089 68.1638 390.505 67.3238C391.921 66.4838 393.589 66.0638 395.509 66.0638C396.901 66.0638 398.101 66.2918 399.109 66.7478C400.141 67.1798 400.933 67.7558 401.485 68.4758C402.037 69.1958 402.313 69.9878 402.313 70.8518C402.313 71.3558 402.217 71.8118 402.025 72.2198C401.833 72.6278 401.545 72.9518 401.161 73.1918C400.777 73.4078 400.285 73.5158 399.685 73.5158C398.917 73.5158 398.317 73.3478 397.885 73.0118C397.477 72.6758 397.273 72.2078 397.273 71.6078C397.273 71.2958 397.357 70.9358 397.525 70.5278C397.717 70.1198 398.029 69.5558 398.461 68.8358C398.053 68.5238 397.609 68.3078 397.129 68.1878C396.649 68.0438 396.085 67.9718 395.437 67.9718C394.573 67.9718 393.805 68.2358 393.133 68.7638C392.485 69.2918 391.969 70.0838 391.585 71.1398C391.225 72.1718 391.045 73.4558 391.045 74.9918C391.045 77.2718 391.501 79.0238 392.413 80.2478C393.349 81.4478 394.669 82.0478 396.373 82.0478C397.357 82.0478 398.257 81.8918 399.073 81.5798C399.913 81.2438 400.693 80.7758 401.413 80.1758L402.493 81.4718C401.653 82.7198 400.597 83.7038 399.325 84.4238C398.053 85.1438 396.565 85.5038 394.861 85.5038Z" fill="white"/>
<path d="M414.069 85.5038C412.149 85.5038 410.493 85.1318 409.101 84.3878C407.709 83.6438 406.641 82.5758 405.897 81.1838C405.153 79.7918 404.781 78.1238 404.781 76.1798C404.781 73.9958 405.177 72.1598 405.969 70.6718C406.785 69.1598 407.937 68.0198 409.425 67.2518C410.913 66.4598 412.653 66.0638 414.645 66.0638C416.469 66.0638 418.065 66.4238 419.433 67.1438C420.801 67.8398 421.857 68.8838 422.601 70.2758C423.369 71.6438 423.753 73.3238 423.753 75.3158C423.753 77.4278 423.357 79.2518 422.565 80.7878C421.773 82.2998 420.657 83.4638 419.217 84.2798C417.777 85.0958 416.061 85.5038 414.069 85.5038ZM414.573 83.4158C415.509 83.4158 416.265 83.1638 416.841 82.6598C417.441 82.1558 417.885 81.3638 418.173 80.2838C418.485 79.1798 418.641 77.7998 418.641 76.1438C418.641 74.7278 418.533 73.5158 418.317 72.5078C418.101 71.4758 417.789 70.6358 417.381 69.9878C416.997 69.3398 416.529 68.8598 415.977 68.5478C415.425 68.2358 414.789 68.0798 414.069 68.0798C413.181 68.0798 412.413 68.3198 411.765 68.7998C411.141 69.2798 410.661 70.0358 410.325 71.0678C410.013 72.0758 409.857 73.4078 409.857 75.0638C409.857 76.9598 410.037 78.5318 410.397 79.7798C410.781 81.0038 411.321 81.9158 412.017 82.5158C412.737 83.1158 413.589 83.4158 414.573 83.4158Z" fill="white"/>
<path d="M435.971 85.5038C434.051 85.5038 432.395 85.1318 431.003 84.3878C429.611 83.6438 428.543 82.5758 427.799 81.1838C427.055 79.7918 426.683 78.1238 426.683 76.1798C426.683 73.9958 427.079 72.1598 427.871 70.6718C428.687 69.1598 429.839 68.0198 431.327 67.2518C432.815 66.4598 434.555 66.0638 436.547 66.0638C438.371 66.0638 439.967 66.4238 441.335 67.1438C442.703 67.8398 443.759 68.8838 444.503 70.2758C445.271 71.6438 445.655 73.3238 445.655 75.3158C445.655 77.4278 445.259 79.2518 444.467 80.7878C443.675 82.2998 442.559 83.4638 441.119 84.2798C439.679 85.0958 437.963 85.5038 435.971 85.5038ZM436.475 83.4158C437.411 83.4158 438.167 83.1638 438.743 82.6598C439.343 82.1558 439.787 81.3638 440.075 80.2838C440.387 79.1798 440.543 77.7998 440.543 76.1438C440.543 74.7278 440.435 73.5158 440.219 72.5078C440.003 71.4758 439.691 70.6358 439.283 69.9878C438.899 69.3398 438.431 68.8598 437.879 68.5478C437.327 68.2358 436.691 68.0798 435.971 68.0798C435.083 68.0798 434.315 68.3198 433.667 68.7998C433.043 69.2798 432.563 70.0358 432.227 71.0678C431.915 72.0758 431.759 73.4078 431.759 75.0638C431.759 76.9598 431.939 78.5318 432.299 79.7798C432.683 81.0038 433.223 81.9158 433.919 82.5158C434.639 83.1158 435.491 83.4158 436.475 83.4158Z" fill="white"/>
<path d="M448.377 84.9998V83.3798L449.961 83.1278C450.345 83.0558 450.585 82.9118 450.681 82.6958C450.801 82.4558 450.861 82.0238 450.861 81.3998V70.8158C450.861 70.0238 450.789 69.4838 450.645 69.1958C450.525 68.8838 450.189 68.6918 449.637 68.6198L448.089 68.4038L448.269 66.7118L454.605 66.3158L455.037 66.6038L455.253 70.0238H455.361C455.937 68.7518 456.705 67.7798 457.665 67.1078C458.625 66.4118 459.681 66.0638 460.833 66.0638C462.057 66.0638 463.029 66.3998 463.749 67.0718C464.469 67.7438 464.829 68.6318 464.829 69.7358C464.829 70.4078 464.721 70.9838 464.505 71.4638C464.313 71.9198 464.001 72.2798 463.569 72.5438C463.161 72.8078 462.645 72.9398 462.021 72.9398C461.205 72.9398 460.593 72.7718 460.185 72.4358C459.801 72.0758 459.609 71.6438 459.609 71.1398C459.609 70.9238 459.633 70.7078 459.681 70.4918C459.753 70.2518 459.861 69.9878 460.005 69.6998C460.149 69.4118 460.341 69.0638 460.581 68.6558C460.029 68.4398 459.465 68.4158 458.889 68.5838C458.313 68.7278 457.773 69.0398 457.269 69.5198C456.789 69.9998 456.393 70.5878 456.081 71.2838C455.793 71.9798 455.649 72.7598 455.649 73.6238V81.4718C455.649 82.0238 455.697 82.4198 455.793 82.6598C455.913 82.8758 456.177 83.0078 456.585 83.0558L459.357 83.3798V84.9998H448.377Z" fill="white"/>
<path d="M473.901 85.5038C472.293 85.5038 470.913 85.1558 469.761 84.4598C468.633 83.7398 467.769 82.6958 467.169 81.3278C466.593 79.9598 466.305 78.2918 466.305 76.3238C466.305 74.2118 466.665 72.3878 467.385 70.8518C468.105 69.3158 469.125 68.1398 470.445 67.3238C471.789 66.4838 473.397 66.0638 475.269 66.0638C476.085 66.0638 476.865 66.1718 477.609 66.3878C478.353 66.5798 479.001 66.8438 479.553 67.1798V61.5278C479.553 60.7598 479.457 60.2558 479.265 60.0158C479.097 59.7518 478.689 59.5838 478.041 59.5118L476.529 59.2958L476.709 57.6398L483.909 57.3878L484.305 57.7838V81.5798C484.305 82.1558 484.377 82.5518 484.521 82.7678C484.665 82.9598 484.989 83.1038 485.493 83.1998L487.005 83.4158V85.0358L480.309 85.3238L479.877 82.3358H479.733C479.325 82.9838 478.833 83.5478 478.257 84.0278C477.705 84.5078 477.069 84.8678 476.349 85.1078C475.629 85.3718 474.813 85.5038 473.901 85.5038ZM475.485 82.8398C476.301 82.8398 477.009 82.6598 477.609 82.2998C478.209 81.9398 478.677 81.3998 479.013 80.6798C479.373 79.9598 479.553 79.1078 479.553 78.1238V69.6638C479.001 69.2558 478.389 68.9318 477.717 68.6918C477.069 68.4518 476.385 68.3318 475.665 68.3318C474.681 68.3318 473.865 68.5958 473.217 69.1238C472.593 69.6518 472.125 70.4678 471.813 71.5718C471.501 72.6758 471.345 74.1038 471.345 75.8558C471.345 77.4638 471.501 78.7838 471.813 79.8158C472.125 80.8478 472.593 81.6158 473.217 82.1198C473.841 82.5998 474.597 82.8398 475.485 82.8398Z" fill="white"/>
<path d="M489.223 84.9998V83.3438L490.951 83.0918C491.383 83.0438 491.659 82.8998 491.779 82.6598C491.899 82.4198 491.959 81.9758 491.959 81.3278V70.8878C491.959 70.0478 491.887 69.4838 491.743 69.1958C491.599 68.9078 491.251 68.7278 490.699 68.6558L489.151 68.4398L489.331 66.7478L496.315 66.3878L496.747 66.6398V81.4358C496.747 81.9638 496.807 82.3598 496.927 82.6238C497.047 82.8638 497.335 83.0198 497.791 83.0918L499.555 83.3798V84.9998H489.223ZM493.867 63.0038C492.955 63.0038 492.211 62.7518 491.635 62.2478C491.083 61.7438 490.807 61.0718 490.807 60.2318C490.807 59.4158 491.083 58.7558 491.635 58.2518C492.187 57.7238 492.931 57.4598 493.867 57.4598C494.851 57.4598 495.607 57.7118 496.135 58.2158C496.663 58.7198 496.927 59.3918 496.927 60.2318C496.927 61.0478 496.651 61.7198 496.099 62.2478C495.547 62.7518 494.803 63.0038 493.867 63.0038Z" fill="white"/>
<path d="M501.99 84.9998V83.3798L503.574 83.1278C503.934 83.0798 504.174 82.9478 504.294 82.7318C504.414 82.4918 504.474 82.0598 504.474 81.4358V70.7798C504.474 69.9638 504.402 69.4118 504.258 69.1238C504.114 68.8358 503.778 68.6558 503.25 68.5838L501.702 68.4038L501.882 66.7118L508.29 66.3158L508.722 66.6038L508.866 69.9518H508.974C509.55 68.7278 510.39 67.7798 511.494 67.1078C512.598 66.4118 513.846 66.0638 515.238 66.0638C516.558 66.0638 517.65 66.3158 518.514 66.8198C519.402 67.2998 520.062 68.0078 520.494 68.9438C520.926 69.8558 521.142 70.9838 521.142 72.3278V81.6878C521.142 82.2158 521.214 82.5878 521.358 82.8038C521.502 82.9958 521.802 83.1158 522.258 83.1638L523.734 83.3798V84.9998H514.086V83.4158L515.382 83.1998C515.814 83.1278 516.09 82.9958 516.21 82.8038C516.33 82.5878 516.39 82.2158 516.39 81.6878V73.0838C516.39 72.0278 516.294 71.1998 516.102 70.5998C515.91 69.9758 515.598 69.5318 515.166 69.2678C514.734 69.0038 514.146 68.8718 513.402 68.8718C512.586 68.8718 511.866 69.0518 511.242 69.4118C510.618 69.7718 510.126 70.2998 509.766 70.9958C509.43 71.6678 509.262 72.4958 509.262 73.4798V81.5798C509.262 82.1078 509.31 82.4918 509.406 82.7318C509.526 82.9478 509.766 83.0798 510.126 83.1278L511.674 83.4158V84.9998H501.99Z" fill="white"/>
<path d="M531.469 85.5038C529.837 85.5038 528.553 85.0718 527.617 84.2078C526.681 83.3198 526.213 82.1198 526.213 80.6078C526.213 79.2878 526.549 78.2318 527.221 77.4398C527.917 76.6238 529.021 76.0118 530.533 75.6038C532.045 75.1958 534.049 74.9438 536.545 74.8478V71.7158C536.545 70.7798 536.437 70.0238 536.221 69.4478C536.005 68.8478 535.645 68.4158 535.141 68.1518C534.661 67.8638 534.013 67.7198 533.197 67.7198C532.549 67.7198 531.901 67.8158 531.253 68.0078C530.629 68.1998 530.149 68.4638 529.813 68.7998C530.125 69.2318 530.377 69.6038 530.569 69.9158C530.761 70.2278 530.893 70.4918 530.965 70.7078C531.037 70.9238 531.073 71.1158 531.073 71.2838C531.073 71.7878 530.857 72.2078 530.425 72.5438C530.017 72.8798 529.453 73.0478 528.733 73.0478C527.965 73.0478 527.377 72.8678 526.969 72.5078C526.585 72.1238 526.393 71.6078 526.393 70.9598C526.393 70.0958 526.717 69.2918 527.365 68.5478C528.037 67.8038 528.937 67.2038 530.065 66.7478C531.217 66.2918 532.513 66.0638 533.953 66.0638C535.609 66.0638 536.977 66.3038 538.057 66.7838C539.161 67.2638 539.977 68.0078 540.505 69.0158C541.057 69.9998 541.333 71.2718 541.333 72.8318V81.2558C541.333 81.8078 541.453 82.2278 541.693 82.5158C541.933 82.7798 542.293 82.9118 542.773 82.9118C543.037 82.9118 543.289 82.8878 543.529 82.8398C543.793 82.7678 544.069 82.6838 544.357 82.5878L544.717 83.8478C544.213 84.3758 543.601 84.7838 542.881 85.0718C542.161 85.3598 541.465 85.5038 540.793 85.5038C539.641 85.5038 538.753 85.2278 538.129 84.6758C537.505 84.0998 537.121 83.3078 536.977 82.2998C536.593 82.9958 536.137 83.5838 535.609 84.0638C535.105 84.5198 534.505 84.8678 533.809 85.1078C533.137 85.3718 532.357 85.5038 531.469 85.5038ZM533.449 82.9838C534.073 82.9838 534.613 82.8518 535.069 82.5878C535.525 82.2998 535.885 81.9038 536.149 81.3998C536.413 80.8958 536.545 80.3318 536.545 79.7078V76.4678C535.273 76.4918 534.217 76.6238 533.377 76.8638C532.561 77.1038 531.961 77.4878 531.577 78.0158C531.193 78.5438 531.001 79.2398 531.001 80.1038C531.001 81.0158 531.205 81.7238 531.613 82.2278C532.045 82.7318 532.657 82.9838 533.449 82.9838Z" fill="white"/>
<path d="M554.787 85.5038C552.987 85.5038 551.427 85.1318 550.107 84.3878C548.787 83.6198 547.767 82.5398 547.047 81.1478C546.351 79.7318 546.003 78.0518 546.003 76.1078C546.003 74.0918 546.387 72.3398 547.155 70.8518C547.923 69.3398 549.015 68.1638 550.431 67.3238C551.847 66.4838 553.515 66.0638 555.435 66.0638C556.827 66.0638 558.027 66.2918 559.035 66.7478C560.067 67.1798 560.859 67.7558 561.411 68.4758C561.963 69.1958 562.239 69.9878 562.239 70.8518C562.239 71.3558 562.143 71.8118 561.951 72.2198C561.759 72.6278 561.471 72.9518 561.087 73.1918C560.703 73.4078 560.211 73.5158 559.611 73.5158C558.843 73.5158 558.243 73.3478 557.811 73.0118C557.403 72.6758 557.199 72.2078 557.199 71.6078C557.199 71.2958 557.283 70.9358 557.451 70.5278C557.643 70.1198 557.955 69.5558 558.387 68.8358C557.979 68.5238 557.535 68.3078 557.055 68.1878C556.575 68.0438 556.011 67.9718 555.363 67.9718C554.499 67.9718 553.731 68.2358 553.059 68.7638C552.411 69.2918 551.895 70.0838 551.511 71.1398C551.151 72.1718 550.971 73.4558 550.971 74.9918C550.971 77.2718 551.427 79.0238 552.339 80.2478C553.275 81.4478 554.595 82.0478 556.299 82.0478C557.283 82.0478 558.183 81.8918 558.999 81.5798C559.839 81.2438 560.619 80.7758 561.339 80.1758L562.419 81.4718C561.579 82.7198 560.523 83.7038 559.251 84.4238C557.979 85.1438 556.491 85.5038 554.787 85.5038Z" fill="white"/>
<path d="M564.703 84.9998V83.3438L566.431 83.0918C566.863 83.0438 567.139 82.8998 567.259 82.6598C567.379 82.4198 567.439 81.9758 567.439 81.3278V70.8878C567.439 70.0478 567.367 69.4838 567.223 69.1958C567.079 68.9078 566.731 68.7278 566.179 68.6558L564.631 68.4398L564.811 66.7478L571.795 66.3878L572.227 66.6398V81.4358C572.227 81.9638 572.287 82.3598 572.407 82.6238C572.527 82.8638 572.815 83.0198 573.271 83.0918L575.035 83.3798V84.9998H564.703ZM569.347 63.0038C568.435 63.0038 567.691 62.7518 567.115 62.2478C566.563 61.7438 566.287 61.0718 566.287 60.2318C566.287 59.4158 566.563 58.7558 567.115 58.2518C567.667 57.7238 568.411 57.4598 569.347 57.4598C570.331 57.4598 571.087 57.7118 571.615 58.2158C572.143 58.7198 572.407 59.3918 572.407 60.2318C572.407 61.0478 572.131 61.7198 571.579 62.2478C571.027 62.7518 570.283 63.0038 569.347 63.0038Z" fill="white"/>
<path d="M586.51 85.5038C584.59 85.5038 582.934 85.1318 581.542 84.3878C580.15 83.6438 579.082 82.5758 578.338 81.1838C577.594 79.7918 577.222 78.1238 577.222 76.1798C577.222 73.9958 577.618 72.1598 578.41 70.6718C579.226 69.1598 580.378 68.0198 581.866 67.2518C583.354 66.4598 585.094 66.0638 587.086 66.0638C588.91 66.0638 590.506 66.4238 591.874 67.1438C593.242 67.8398 594.298 68.8838 595.042 70.2758C595.81 71.6438 596.194 73.3238 596.194 75.3158C596.194 77.4278 595.798 79.2518 595.006 80.7878C594.214 82.2998 593.098 83.4638 591.658 84.2798C590.218 85.0958 588.502 85.5038 586.51 85.5038ZM587.014 83.4158C587.95 83.4158 588.706 83.1638 589.282 82.6598C589.882 82.1558 590.326 81.3638 590.614 80.2838C590.926 79.1798 591.082 77.7998 591.082 76.1438C591.082 74.7278 590.974 73.5158 590.758 72.5078C590.542 71.4758 590.23 70.6358 589.822 69.9878C589.438 69.3398 588.97 68.8598 588.418 68.5478C587.866 68.2358 587.23 68.0798 586.51 68.0798C585.622 68.0798 584.854 68.3198 584.206 68.7998C583.582 69.2798 583.102 70.0358 582.766 71.0678C582.454 72.0758 582.298 73.4078 582.298 75.0638C582.298 76.9598 582.478 78.5318 582.838 79.7798C583.222 81.0038 583.762 81.9158 584.458 82.5158C585.178 83.1158 586.03 83.4158 587.014 83.4158ZM584.782 64.1558L583.918 63.2918L587.626 57.7118C587.89 57.2798 588.142 56.9918 588.382 56.8478C588.646 56.6798 588.934 56.5958 589.246 56.5958C589.678 56.5958 590.038 56.7038 590.326 56.9198C590.614 57.1358 590.83 57.4118 590.974 57.7478C591.118 58.0598 591.19 58.3838 591.19 58.7198C591.19 59.1038 591.07 59.4638 590.83 59.7998C590.614 60.1358 590.29 60.4478 589.858 60.7358L584.782 64.1558Z" fill="white"/>
<path d="M598.916 84.9998V83.3798L600.5 83.1278C600.86 83.0798 601.1 82.9478 601.22 82.7318C601.34 82.4918 601.4 82.0598 601.4 81.4358V70.7798C601.4 69.9638 601.328 69.4118 601.184 69.1238C601.04 68.8358 600.704 68.6558 600.176 68.5838L598.628 68.4038L598.808 66.7118L605.216 66.3158L605.648 66.6038L605.792 69.9518H605.9C606.476 68.7278 607.316 67.7798 608.42 67.1078C609.524 66.4118 610.772 66.0638 612.164 66.0638C613.484 66.0638 614.576 66.3158 615.44 66.8198C616.328 67.2998 616.988 68.0078 617.42 68.9438C617.852 69.8558 618.068 70.9838 618.068 72.3278V81.6878C618.068 82.2158 618.14 82.5878 618.284 82.8038C618.428 82.9958 618.728 83.1158 619.184 83.1638L620.66 83.3798V84.9998H611.012V83.4158L612.308 83.1998C612.74 83.1278 613.016 82.9958 613.136 82.8038C613.256 82.5878 613.316 82.2158 613.316 81.6878V73.0838C613.316 72.0278 613.22 71.1998 613.028 70.5998C612.836 69.9758 612.524 69.5318 612.092 69.2678C611.66 69.0038 611.072 68.8718 610.328 68.8718C609.512 68.8718 608.792 69.0518 608.168 69.4118C607.544 69.7718 607.052 70.2998 606.692 70.9958C606.356 71.6678 606.188 72.4958 606.188 73.4798V81.5798C606.188 82.1078 606.236 82.4918 606.332 82.7318C606.452 82.9478 606.692 83.0798 607.052 83.1278L608.6 83.4158V84.9998H598.916Z" fill="white"/>
<path d="M48.2978 21.7373C46.4153 21.7373 44.5852 21.9464 42.8596 22.26C32.2447 23.4098 24.0874 30.4658 24.0874 39.0375C24.0874 41.9644 25.0809 44.839 26.9111 47.4001V62.7664C26.9111 65.7455 29.2118 68.1498 32.0355 68.1498H34.5977H59.4879H62.0501C64.8738 68.1498 67.1746 65.7455 67.1746 62.7664V47.2433C69.0047 44.6822 69.9983 41.7553 69.9983 38.8284C69.946 29.4205 60.22 21.7373 48.2978 21.7373ZM31.3557 66.9477C29.4733 66.6341 28.0092 64.857 28.0092 62.7664V47.0342L27.9046 46.8774C26.1267 44.4732 25.1855 41.8076 25.1855 39.0375C25.1855 33.9154 28.3752 29.3682 33.2905 26.4935C34.65 25.7095 36.1665 25.0301 37.7875 24.5074C39.4085 23.9848 41.1863 23.6189 43.0165 23.4098C43.9054 23.3053 44.7943 23.253 45.7356 23.253C57.0826 23.253 66.2856 30.3612 66.2856 39.0375C66.2856 41.8076 65.3444 44.4732 63.5666 46.8774L63.462 47.0342V62.7664C63.462 65.1184 61.6841 66.9999 59.4879 66.9999H34.5455H32.4016H31.9832C31.7741 66.9999 31.5649 66.9477 31.3557 66.9477Z" fill="white"/>
<path d="M34.0225 58.1145C34.86 58.1145 35.5389 57.4358 35.5389 56.5987C35.5389 55.7616 34.86 55.083 34.0225 55.083C33.185 55.083 32.5061 55.7616 32.5061 56.5987C32.5061 57.4358 33.185 58.1145 34.0225 58.1145Z" fill="white"/>
<path d="M56.1417 58.1145C56.9791 58.1145 57.6581 57.4358 57.6581 56.5987C57.6581 55.7616 56.9791 55.083 56.1417 55.083C55.3042 55.083 54.6252 55.7616 54.6252 56.5987C54.6252 57.4358 55.3042 58.1145 56.1417 58.1145Z" fill="white"/>
<path d="M45.161 61.9299C43.2262 61.9299 41.6052 60.7278 41.6052 59.2644C41.6052 58.9508 41.8144 58.7417 42.1281 58.7417C42.4419 58.7417 42.651 58.9508 42.651 59.2644C42.651 60.1529 43.8014 60.8846 45.161 60.8846C46.5205 60.8846 47.6709 60.1529 47.6709 59.2644C47.6709 58.9508 47.8801 58.7417 48.1938 58.7417C48.5075 58.7417 48.7167 58.9508 48.7167 59.2644C48.7167 60.7278 47.0957 61.9299 45.161 61.9299Z" fill="white"/>
<circle cx="47" cy="47" r="45.5" stroke="white" stroke-width="3"/>
</svg>
