<svg width="937" height="224" viewBox="0 0 937 224" fill="none" xmlns="http://www.w3.org/2000/svg">
<path d="M13.3838 165.288L8.39182 164.264L8.64782 162.536H31.1758L30.9838 164.264L25.9918 165.096L24.3918 206.504L30.0878 207.208L29.9598 209H6.21582L6.40782 207.208L11.6558 206.568L13.3838 165.288Z" fill="#D466E5"/>
<path d="M40.5088 165.288L35.5168 164.264L35.7728 162.536H58.3008L58.1088 164.264L53.1168 165.096L51.5168 206.504L57.2128 207.208L57.0848 209H33.3408L33.5328 207.208L38.7808 206.568L40.5088 165.288Z" fill="#D466E5"/>
<path d="M67.6338 165.288L62.6418 164.264L62.8978 162.536H85.4258L85.2338 164.264L80.2418 165.096L78.6418 206.504L84.3378 207.208L84.2098 209H60.4658L60.6578 207.208L65.9058 206.568L67.6338 165.288Z" fill="#D466E5"/>
<path d="M107.696 165.288L102.64 164.264L102.832 162.536H125.552L125.296 164.264L120.368 165.096L118.96 202.408C118.875 204.626 118.512 206.674 117.872 208.552C117.275 210.386 116.336 212.114 115.056 213.736C113.819 215.4 112.155 217.042 110.064 218.664C108.016 220.285 105.499 221.992 102.512 223.784L101.36 222.376C102.299 221.266 103.046 220.178 103.6 219.112C104.155 218.045 104.603 216.829 104.944 215.464C105.286 214.098 105.52 212.456 105.648 210.536C105.819 208.658 105.968 206.333 106.096 203.56L107.696 165.288Z" fill="#D466E5"/>
<path d="M142.438 209.896C138.726 209.896 135.654 209.213 133.222 207.848C130.832 206.482 129.04 204.584 127.846 202.152C126.694 199.677 126.118 196.84 126.118 193.64C126.118 191.122 126.459 188.733 127.142 186.472C127.824 184.168 128.912 182.162 130.406 180.456C131.942 178.706 133.904 177.341 136.294 176.36C138.726 175.336 141.648 174.824 145.062 174.824C148.688 174.824 151.696 175.485 154.086 176.808C156.475 178.088 158.267 179.922 159.462 182.312C160.656 184.701 161.254 187.581 161.254 190.952C161.254 193.384 160.912 195.73 160.23 197.992C159.59 200.253 158.523 202.28 157.03 204.072C155.579 205.864 153.659 207.293 151.27 208.36C148.88 209.384 145.936 209.896 142.438 209.896ZM143.27 207.912C144.934 207.912 146.15 207.229 146.918 205.864C147.686 204.456 148.176 202.493 148.39 199.976C148.603 197.416 148.71 194.429 148.71 191.016C148.71 187.73 148.624 185.021 148.454 182.888C148.283 180.754 147.878 179.176 147.238 178.152C146.64 177.128 145.68 176.616 144.358 176.616C143.462 176.616 142.672 176.872 141.99 177.384C141.307 177.896 140.731 178.792 140.262 180.072C139.835 181.352 139.494 183.122 139.238 185.384C139.024 187.645 138.918 190.504 138.918 193.96C138.918 197.202 139.024 199.869 139.238 201.96C139.494 204.008 139.92 205.522 140.518 206.504C141.158 207.442 142.075 207.912 143.27 207.912Z" fill="#D466E5"/>
<path d="M169.005 180.264C169.005 179.666 168.941 179.133 168.813 178.664C168.685 178.194 168.28 177.96 167.597 177.96C167.213 177.96 166.765 178.024 166.253 178.152C165.741 178.28 164.995 178.514 164.013 178.856L163.437 177.064C164.291 176.637 165.293 176.253 166.445 175.912C167.597 175.57 168.771 175.314 169.965 175.144C171.16 174.93 172.248 174.824 173.229 174.824C175.704 174.824 177.432 175.528 178.413 176.936C179.437 178.344 179.821 180.242 179.565 182.632L178.157 196.648L178.669 196.712L182.317 184.488C182.957 182.397 183.661 180.648 184.429 179.24C185.197 177.789 186.157 176.701 187.309 175.976C188.461 175.208 189.912 174.824 191.661 174.824C192.941 174.824 194.029 175.08 194.925 175.592C195.864 176.061 196.589 176.701 197.101 177.512C197.613 178.322 197.869 179.261 197.869 180.328C197.869 181.906 197.4 183.229 196.461 184.296C195.565 185.362 194.371 186.28 192.877 187.048L190.509 184.296C189.912 183.613 189.4 183.122 188.973 182.824C188.589 182.482 188.163 182.312 187.693 182.312C187.437 182.312 187.139 182.397 186.797 182.568C186.499 182.696 186.157 183.016 185.773 183.528C185.432 184.04 185.048 184.786 184.621 185.768C184.195 186.749 183.661 188.093 183.021 189.8C182.381 191.677 181.827 193.277 181.357 194.6C180.931 195.88 180.568 197.032 180.269 198.056C179.971 199.037 179.715 199.997 179.501 200.936C179.288 201.832 179.053 202.856 178.797 204.008L177.709 209H168.109L169.005 180.264Z" fill="#D466E5"/>
<path d="M241.868 205.352C241.228 205.906 240.289 206.546 239.052 207.272C237.814 207.954 236.449 208.552 234.956 209.064C233.462 209.618 232.012 209.896 230.604 209.896C228.001 209.896 226.166 209.277 225.1 208.04C224.076 206.802 223.649 205.138 223.82 203.048L225.548 184.296C225.676 183.016 225.612 182.12 225.356 181.608C225.142 181.053 224.694 180.776 224.012 180.776C223.372 180.776 222.86 180.925 222.476 181.224C222.134 181.522 221.793 182.056 221.452 182.824C221.153 183.549 220.79 184.616 220.364 186.024L213.836 209H204.3L205.068 180.136C205.068 179.496 204.982 178.984 204.812 178.6C204.684 178.173 204.3 177.96 203.66 177.96C203.233 177.96 202.7 178.045 202.06 178.216C201.42 178.386 200.78 178.6 200.14 178.856L199.5 177.064C199.884 176.85 200.609 176.573 201.676 176.232C202.742 175.89 203.937 175.57 205.26 175.272C206.582 174.973 207.841 174.824 209.036 174.824C211.34 174.824 213.089 175.485 214.284 176.808C215.521 178.13 216.012 179.986 215.756 182.376L214.092 198.184L214.668 198.248L218.7 183.976C219.254 182.056 219.873 180.413 220.556 179.048C221.238 177.64 222.198 176.573 223.436 175.848C224.673 175.08 226.401 174.696 228.62 174.696C230.582 174.696 232.246 175.144 233.612 176.04C234.977 176.936 235.98 178.258 236.62 180.008C237.26 181.714 237.473 183.848 237.26 186.408L235.788 202.92C235.745 203.773 235.788 204.434 235.916 204.904C236.044 205.33 236.492 205.544 237.26 205.544C237.942 205.544 238.625 205.373 239.308 205.032C239.99 204.648 240.588 204.264 241.1 203.88L241.868 205.352Z" fill="#D466E5"/>
<path d="M277.021 202.984C276.979 203.922 277.064 204.648 277.277 205.16C277.491 205.672 277.981 205.928 278.749 205.928C279.517 205.928 280.264 205.714 280.989 205.288C281.757 204.818 282.397 204.392 282.909 204.008L283.677 205.416C283.251 205.842 282.504 206.418 281.437 207.144C280.371 207.869 279.112 208.509 277.661 209.064C276.211 209.618 274.675 209.896 273.053 209.896C271.517 209.896 270.195 209.597 269.085 209C267.976 208.402 267.165 207.506 266.653 206.312C266.141 205.117 266.077 203.645 266.461 201.896L269.277 186.92L268.701 186.856L265.821 197.032C265.352 198.653 264.883 200.232 264.413 201.768C263.987 203.304 263.389 204.69 262.621 205.928C261.853 207.122 260.851 208.082 259.613 208.808C258.376 209.533 256.755 209.896 254.749 209.896C252.189 209.896 250.099 209.298 248.477 208.104C246.899 206.866 245.725 205.202 244.957 203.112C244.189 200.978 243.805 198.589 243.805 195.944C243.805 193.042 244.168 190.333 244.893 187.816C245.661 185.256 246.771 183.016 248.221 181.096C249.672 179.133 251.464 177.597 253.597 176.488C255.731 175.378 258.205 174.824 261.021 174.824C262.643 174.824 264.093 175.037 265.373 175.464C266.696 175.848 267.848 176.232 268.829 176.616L276.765 174.568L277.853 175.272L277.021 202.984ZM259.165 203.624C259.848 203.624 260.424 203.474 260.893 203.176C261.405 202.834 261.853 202.28 262.237 201.512C262.621 200.701 263.027 199.613 263.453 198.248C263.923 196.84 264.435 195.069 264.989 192.936L268.829 178.728C267.891 178.173 266.931 177.746 265.949 177.448C265.011 177.106 264.115 176.936 263.261 176.936C262.109 176.936 261.107 177.384 260.253 178.28C259.443 179.133 258.76 180.392 258.205 182.056C257.651 183.72 257.224 185.768 256.925 188.2C256.627 190.589 256.413 193.32 256.285 196.392C256.243 198.098 256.307 199.485 256.477 200.552C256.648 201.618 256.947 202.408 257.373 202.92C257.843 203.389 258.44 203.624 259.165 203.624Z" fill="#D466E5"/>
<path d="M318.402 203.432C318.402 203.986 318.488 204.541 318.658 205.096C318.829 205.65 319.341 205.928 320.194 205.928C321.005 205.928 321.773 205.714 322.498 205.288C323.224 204.818 323.842 204.392 324.354 204.008L325.058 205.416C324.717 205.8 323.97 206.354 322.818 207.08C321.666 207.805 320.322 208.445 318.786 209C317.25 209.597 315.65 209.896 313.986 209.896C311.298 209.896 309.421 209.128 308.354 207.592C307.33 206.013 307.053 203.944 307.522 201.384L311.042 183.4L310.466 183.208L307.458 194.664C306.946 196.669 306.413 198.589 305.858 200.424C305.304 202.258 304.621 203.901 303.81 205.352C303 206.76 301.933 207.869 300.61 208.68C299.288 209.49 297.581 209.896 295.49 209.896C293.784 209.896 292.248 209.554 290.882 208.872C289.56 208.146 288.45 207.165 287.554 205.928C286.658 204.648 285.976 203.154 285.506 201.448C285.037 199.741 284.802 197.864 284.802 195.816C284.802 193.085 285.165 190.461 285.89 187.944C286.616 185.426 287.704 183.186 289.154 181.224C290.605 179.218 292.397 177.661 294.53 176.552C296.664 175.4 299.16 174.824 302.018 174.824C303.042 174.824 304.173 174.952 305.41 175.208C306.69 175.464 307.714 175.805 308.482 176.232L309.058 162.856L302.594 161.704L302.786 159.912H319.554L320.002 160.68L318.402 203.432ZM300.162 203.624C300.717 203.624 301.208 203.496 301.634 203.24C302.104 202.984 302.552 202.472 302.978 201.704C303.405 200.893 303.853 199.741 304.322 198.248C304.834 196.712 305.453 194.664 306.178 192.104L309.762 178.728C309.122 178.344 308.461 178.024 307.778 177.768C307.138 177.512 306.52 177.32 305.922 177.192C305.325 177.021 304.77 176.936 304.258 176.936C303.106 176.936 302.082 177.405 301.186 178.344C300.333 179.24 299.608 180.562 299.01 182.312C298.456 184.061 298.029 186.173 297.73 188.648C297.432 191.122 297.282 193.874 297.282 196.904C297.282 199.25 297.474 200.957 297.858 202.024C298.285 203.09 299.053 203.624 300.162 203.624Z" fill="#D466E5"/>
<path d="M360.146 202.984C360.104 203.922 360.189 204.648 360.402 205.16C360.616 205.672 361.106 205.928 361.874 205.928C362.642 205.928 363.389 205.714 364.114 205.288C364.882 204.818 365.522 204.392 366.034 204.008L366.802 205.416C366.376 205.842 365.629 206.418 364.562 207.144C363.496 207.869 362.237 208.509 360.786 209.064C359.336 209.618 357.8 209.896 356.178 209.896C354.642 209.896 353.32 209.597 352.21 209C351.101 208.402 350.29 207.506 349.778 206.312C349.266 205.117 349.202 203.645 349.586 201.896L352.402 186.92L351.826 186.856L348.946 197.032C348.477 198.653 348.008 200.232 347.538 201.768C347.112 203.304 346.514 204.69 345.746 205.928C344.978 207.122 343.976 208.082 342.738 208.808C341.501 209.533 339.88 209.896 337.874 209.896C335.314 209.896 333.224 209.298 331.602 208.104C330.024 206.866 328.85 205.202 328.082 203.112C327.314 200.978 326.93 198.589 326.93 195.944C326.93 193.042 327.293 190.333 328.018 187.816C328.786 185.256 329.896 183.016 331.346 181.096C332.797 179.133 334.589 177.597 336.722 176.488C338.856 175.378 341.33 174.824 344.146 174.824C345.768 174.824 347.218 175.037 348.498 175.464C349.821 175.848 350.973 176.232 351.954 176.616L359.89 174.568L360.978 175.272L360.146 202.984ZM342.29 203.624C342.973 203.624 343.549 203.474 344.018 203.176C344.53 202.834 344.978 202.28 345.362 201.512C345.746 200.701 346.152 199.613 346.578 198.248C347.048 196.84 347.56 195.069 348.114 192.936L351.954 178.728C351.016 178.173 350.056 177.746 349.074 177.448C348.136 177.106 347.24 176.936 346.386 176.936C345.234 176.936 344.232 177.384 343.378 178.28C342.568 179.133 341.885 180.392 341.33 182.056C340.776 183.72 340.349 185.768 340.05 188.2C339.752 190.589 339.538 193.32 339.41 196.392C339.368 198.098 339.432 199.485 339.602 200.552C339.773 201.618 340.072 202.408 340.498 202.92C340.968 203.389 341.565 203.624 342.29 203.624Z" fill="#D466E5"/>
<path d="M381.622 207.976C383.499 207.976 385.014 207.485 386.166 206.504C387.318 205.522 387.894 204.157 387.894 202.408C387.894 201.384 387.616 200.53 387.062 199.848C386.507 199.165 385.654 198.568 384.502 198.056C383.392 197.544 381.984 197.074 380.278 196.648C378.23 196.093 376.374 195.346 374.71 194.408C373.046 193.469 371.723 192.296 370.742 190.888C369.76 189.48 369.27 187.837 369.27 185.96C369.27 184.466 369.632 183.058 370.358 181.736C371.083 180.37 372.107 179.176 373.43 178.152C374.752 177.085 376.352 176.274 378.23 175.72C380.15 175.122 382.304 174.824 384.694 174.824C386.912 174.824 388.96 175.122 390.838 175.72C392.715 176.317 394.187 177.149 395.254 178.216C396.363 179.282 396.918 180.498 396.918 181.864C396.918 182.973 396.512 183.869 395.702 184.552C394.934 185.234 393.888 185.576 392.566 185.576C391.798 185.576 390.966 185.448 390.07 185.192C389.216 184.936 388.47 184.637 387.83 184.296L388.534 181.032C388.875 179.624 388.662 178.536 387.894 177.768C387.168 177 385.91 176.616 384.118 176.616C382.923 176.616 381.899 176.808 381.046 177.192C380.192 177.533 379.552 178.024 379.126 178.664C378.699 179.304 378.486 180.114 378.486 181.096C378.486 181.992 378.742 182.824 379.254 183.592C379.808 184.317 380.555 184.957 381.494 185.512C382.475 186.066 383.606 186.536 384.886 186.92C386.72 187.474 388.342 188.072 389.75 188.712C391.2 189.352 392.416 190.098 393.398 190.952C394.379 191.762 395.126 192.722 395.638 193.832C396.15 194.898 396.406 196.157 396.406 197.608C396.406 200.082 395.744 202.237 394.422 204.072C393.142 205.906 391.307 207.336 388.918 208.36C386.571 209.384 383.798 209.896 380.598 209.896C378.08 209.896 375.883 209.64 374.006 209.128C372.171 208.658 370.742 207.954 369.718 207.016C368.736 206.034 368.246 204.882 368.246 203.56C368.246 202.237 368.672 201.213 369.526 200.488C370.422 199.72 371.552 199.336 372.918 199.336C373.6 199.336 374.283 199.421 374.966 199.592C375.691 199.762 376.352 199.997 376.95 200.296L377.206 204.136C377.334 205.458 377.718 206.44 378.358 207.08C379.04 207.677 380.128 207.976 381.622 207.976Z" fill="#D466E5"/>
<path d="M448.09 203.432C448.09 203.986 448.175 204.541 448.346 205.096C448.516 205.65 449.028 205.928 449.882 205.928C450.692 205.928 451.46 205.714 452.186 205.288C452.911 204.818 453.53 204.392 454.042 204.008L454.746 205.416C454.404 205.8 453.658 206.354 452.506 207.08C451.354 207.805 450.01 208.445 448.474 209C446.938 209.597 445.338 209.896 443.674 209.896C440.986 209.896 439.108 209.128 438.042 207.592C437.018 206.013 436.74 203.944 437.21 201.384L440.73 183.4L440.154 183.208L437.146 194.664C436.634 196.669 436.1 198.589 435.546 200.424C434.991 202.258 434.308 203.901 433.498 205.352C432.687 206.76 431.62 207.869 430.298 208.68C428.975 209.49 427.268 209.896 425.178 209.896C423.471 209.896 421.935 209.554 420.57 208.872C419.247 208.146 418.138 207.165 417.242 205.928C416.346 204.648 415.663 203.154 415.194 201.448C414.724 199.741 414.49 197.864 414.49 195.816C414.49 193.085 414.852 190.461 415.578 187.944C416.303 185.426 417.391 183.186 418.842 181.224C420.292 179.218 422.084 177.661 424.218 176.552C426.351 175.4 428.847 174.824 431.706 174.824C432.73 174.824 433.86 174.952 435.098 175.208C436.378 175.464 437.402 175.805 438.17 176.232L438.746 162.856L432.282 161.704L432.474 159.912H449.242L449.69 160.68L448.09 203.432ZM429.85 203.624C430.404 203.624 430.895 203.496 431.322 203.24C431.791 202.984 432.239 202.472 432.666 201.704C433.093 200.893 433.54 199.741 434.01 198.248C434.522 196.712 435.14 194.664 435.866 192.104L439.45 178.728C438.81 178.344 438.148 178.024 437.466 177.768C436.826 177.512 436.207 177.32 435.61 177.192C435.012 177.021 434.458 176.936 433.946 176.936C432.794 176.936 431.77 177.405 430.874 178.344C430.02 179.24 429.295 180.562 428.698 182.312C428.143 184.061 427.716 186.173 427.418 188.648C427.119 191.122 426.97 193.874 426.97 196.904C426.97 199.25 427.162 200.957 427.546 202.024C427.972 203.09 428.74 203.624 429.85 203.624Z" fill="#D466E5"/>
<path d="M476.202 174.824C480.383 174.824 483.434 175.592 485.354 177.128C487.274 178.664 488.234 180.712 488.234 183.272C488.234 185.064 487.807 186.536 486.954 187.688C486.1 188.797 484.991 189.693 483.626 190.376C482.303 191.016 480.874 191.528 479.338 191.912C477.802 192.253 476.351 192.594 474.986 192.936L469.162 194.088C469.29 197.202 469.631 199.698 470.186 201.576C470.74 203.453 471.53 204.818 472.554 205.672C473.578 206.482 474.836 206.888 476.33 206.888C477.525 206.888 478.676 206.589 479.786 205.992C480.895 205.394 481.94 204.648 482.922 203.752C483.903 202.813 484.778 201.832 485.546 200.808L486.634 202.024C486.292 202.536 485.738 203.24 484.97 204.136C484.244 204.989 483.284 205.864 482.09 206.76C480.938 207.656 479.551 208.402 477.93 209C476.351 209.597 474.516 209.896 472.426 209.896C468.97 209.896 466.047 209.298 463.658 208.104C461.311 206.866 459.54 205.117 458.346 202.856C457.151 200.594 456.554 197.864 456.554 194.664C456.554 190.696 457.343 187.24 458.922 184.296C460.5 181.309 462.762 178.984 465.706 177.32C468.65 175.656 472.148 174.824 476.202 174.824ZM478.058 182.568C478.058 181.416 477.972 180.392 477.802 179.496C477.631 178.6 477.332 177.896 476.906 177.384C476.479 176.829 475.839 176.552 474.986 176.552C473.706 176.552 472.66 177.17 471.85 178.408C471.039 179.645 470.42 181.437 469.994 183.784C469.567 186.13 469.29 188.946 469.162 192.232L472.746 191.4C473.94 191.101 474.922 190.696 475.69 190.184C476.5 189.629 477.098 188.776 477.482 187.624C477.866 186.429 478.058 184.744 478.058 182.568Z" fill="#D466E5"/>
<path d="M525.008 174.824C526.928 174.824 528.763 175.144 530.512 175.784C532.304 176.381 533.755 177.341 534.864 178.664C536.016 179.986 536.592 181.714 536.592 183.848C536.592 185.469 536.102 186.77 535.12 187.752C534.182 188.69 533.008 189.16 531.6 189.16C530.534 189.16 529.488 188.818 528.464 188.136C527.44 187.41 526.715 186.557 526.288 185.576L527.632 183.592C528.571 182.226 529.062 181.032 529.104 180.008C529.147 178.941 528.87 178.109 528.272 177.512C527.675 176.872 526.843 176.552 525.776 176.552C524.326 176.552 523.131 177.042 522.192 178.024C521.254 179.005 520.486 180.328 519.888 181.992C519.334 183.656 518.928 185.533 518.672 187.624C518.459 189.714 518.352 191.89 518.352 194.152C518.352 196.498 518.502 198.653 518.8 200.616C519.142 202.536 519.76 204.072 520.656 205.224C521.595 206.376 522.939 206.952 524.688 206.952C526.139 206.952 527.462 206.653 528.656 206.056C529.851 205.458 530.939 204.69 531.92 203.752C532.902 202.77 533.755 201.768 534.48 200.744L535.696 201.896C535.398 202.45 534.886 203.176 534.16 204.072C533.435 204.968 532.475 205.864 531.28 206.76C530.128 207.656 528.699 208.402 526.992 209C525.286 209.597 523.302 209.896 521.04 209.896C518.054 209.896 515.387 209.32 513.04 208.168C510.736 207.016 508.923 205.266 507.6 202.92C506.278 200.573 505.616 197.629 505.616 194.088C505.616 191.826 505.958 189.565 506.64 187.304C507.366 185 508.496 182.909 510.032 181.032C511.568 179.154 513.552 177.661 515.984 176.552C518.459 175.4 521.467 174.824 525.008 174.824Z" fill="#D466E5"/>
<path d="M555.688 209.896C551.976 209.896 548.904 209.213 546.472 207.848C544.082 206.482 542.29 204.584 541.096 202.152C539.944 199.677 539.368 196.84 539.368 193.64C539.368 191.122 539.709 188.733 540.392 186.472C541.075 184.168 542.162 182.162 543.656 180.456C545.192 178.706 547.154 177.341 549.544 176.36C551.976 175.336 554.898 174.824 558.312 174.824C561.938 174.824 564.946 175.485 567.336 176.808C569.725 178.088 571.517 179.922 572.712 182.312C573.906 184.701 574.504 187.581 574.504 190.952C574.504 193.384 574.162 195.73 573.48 197.992C572.84 200.253 571.773 202.28 570.28 204.072C568.829 205.864 566.909 207.293 564.52 208.36C562.131 209.384 559.186 209.896 555.688 209.896ZM556.52 207.912C558.184 207.912 559.4 207.229 560.168 205.864C560.936 204.456 561.426 202.493 561.64 199.976C561.853 197.416 561.96 194.429 561.96 191.016C561.96 187.73 561.874 185.021 561.704 182.888C561.533 180.754 561.128 179.176 560.488 178.152C559.89 177.128 558.931 176.616 557.608 176.616C556.712 176.616 555.922 176.872 555.24 177.384C554.557 177.896 553.981 178.792 553.512 180.072C553.085 181.352 552.744 183.122 552.488 185.384C552.274 187.645 552.168 190.504 552.168 193.96C552.168 197.202 552.274 199.869 552.488 201.96C552.744 204.008 553.17 205.522 553.768 206.504C554.408 207.442 555.325 207.912 556.52 207.912Z" fill="#D466E5"/>
<path d="M595.375 209.896C591.663 209.896 588.591 209.213 586.159 207.848C583.77 206.482 581.978 204.584 580.783 202.152C579.631 199.677 579.055 196.84 579.055 193.64C579.055 191.122 579.397 188.733 580.079 186.472C580.762 184.168 581.85 182.162 583.343 180.456C584.879 178.706 586.842 177.341 589.231 176.36C591.663 175.336 594.586 174.824 597.999 174.824C601.626 174.824 604.634 175.485 607.023 176.808C609.413 178.088 611.205 179.922 612.399 182.312C613.594 184.701 614.191 187.581 614.191 190.952C614.191 193.384 613.85 195.73 613.167 197.992C612.527 200.253 611.461 202.28 609.967 204.072C608.517 205.864 606.597 207.293 604.207 208.36C601.818 209.384 598.874 209.896 595.375 209.896ZM596.207 207.912C597.871 207.912 599.087 207.229 599.855 205.864C600.623 204.456 601.114 202.493 601.327 199.976C601.541 197.416 601.647 194.429 601.647 191.016C601.647 187.73 601.562 185.021 601.391 182.888C601.221 180.754 600.815 179.176 600.175 178.152C599.578 177.128 598.618 176.616 597.295 176.616C596.399 176.616 595.61 176.872 594.927 177.384C594.245 177.896 593.669 178.792 593.199 180.072C592.773 181.352 592.431 183.122 592.175 185.384C591.962 187.645 591.855 190.504 591.855 193.96C591.855 197.202 591.962 199.869 592.175 201.96C592.431 204.008 592.858 205.522 593.455 206.504C594.095 207.442 595.013 207.912 596.207 207.912Z" fill="#D466E5"/>
<path d="M621.943 180.264C621.943 179.666 621.879 179.133 621.751 178.664C621.623 178.194 621.217 177.96 620.535 177.96C620.151 177.96 619.703 178.024 619.191 178.152C618.679 178.28 617.932 178.514 616.951 178.856L616.375 177.064C617.228 176.637 618.231 176.253 619.383 175.912C620.535 175.57 621.708 175.314 622.903 175.144C624.097 174.93 625.185 174.824 626.167 174.824C628.641 174.824 630.369 175.528 631.351 176.936C632.375 178.344 632.759 180.242 632.503 182.632L631.095 196.648L631.607 196.712L635.255 184.488C635.895 182.397 636.599 180.648 637.367 179.24C638.135 177.789 639.095 176.701 640.247 175.976C641.399 175.208 642.849 174.824 644.599 174.824C645.879 174.824 646.967 175.08 647.863 175.592C648.801 176.061 649.527 176.701 650.039 177.512C650.551 178.322 650.807 179.261 650.807 180.328C650.807 181.906 650.337 183.229 649.399 184.296C648.503 185.362 647.308 186.28 645.815 187.048L643.447 184.296C642.85 183.613 642.337 183.122 641.911 182.824C641.527 182.482 641.1 182.312 640.631 182.312C640.375 182.312 640.076 182.397 639.735 182.568C639.436 182.696 639.095 183.016 638.711 183.528C638.369 184.04 637.986 184.786 637.559 185.768C637.132 186.749 636.599 188.093 635.959 189.8C635.319 191.677 634.764 193.277 634.295 194.6C633.868 195.88 633.506 197.032 633.207 198.056C632.908 199.037 632.652 199.997 632.439 200.936C632.226 201.832 631.991 202.856 631.735 204.008L630.647 209H621.047L621.943 180.264Z" fill="#D466E5"/>
<path d="M685.34 203.432C685.34 203.986 685.425 204.541 685.596 205.096C685.766 205.65 686.279 205.928 687.132 205.928C687.943 205.928 688.71 205.714 689.436 205.288C690.161 204.818 690.78 204.392 691.292 204.008L691.996 205.416C691.654 205.8 690.908 206.354 689.756 207.08C688.604 207.805 687.26 208.445 685.724 209C684.188 209.597 682.588 209.896 680.924 209.896C678.236 209.896 676.358 209.128 675.292 207.592C674.268 206.013 673.991 203.944 674.46 201.384L677.98 183.4L677.404 183.208L674.396 194.664C673.884 196.669 673.351 198.589 672.796 200.424C672.241 202.258 671.558 203.901 670.748 205.352C669.937 206.76 668.87 207.869 667.548 208.68C666.225 209.49 664.518 209.896 662.428 209.896C660.721 209.896 659.185 209.554 657.82 208.872C656.497 208.146 655.388 207.165 654.492 205.928C653.596 204.648 652.913 203.154 652.444 201.448C651.974 199.741 651.74 197.864 651.74 195.816C651.74 193.085 652.102 190.461 652.828 187.944C653.553 185.426 654.641 183.186 656.092 181.224C657.542 179.218 659.335 177.661 661.468 176.552C663.601 175.4 666.097 174.824 668.956 174.824C669.98 174.824 671.111 174.952 672.348 175.208C673.628 175.464 674.652 175.805 675.42 176.232L675.996 162.856L669.532 161.704L669.724 159.912H686.492L686.94 160.68L685.34 203.432ZM667.1 203.624C667.654 203.624 668.145 203.496 668.572 203.24C669.041 202.984 669.489 202.472 669.916 201.704C670.343 200.893 670.79 199.741 671.26 198.248C671.772 196.712 672.391 194.664 673.116 192.104L676.7 178.728C676.06 178.344 675.398 178.024 674.716 177.768C674.076 177.512 673.457 177.32 672.86 177.192C672.262 177.021 671.708 176.936 671.196 176.936C670.044 176.936 669.02 177.405 668.124 178.344C667.271 179.24 666.545 180.562 665.948 182.312C665.393 184.061 664.967 186.173 664.668 188.648C664.369 191.122 664.22 193.874 664.22 196.904C664.22 199.25 664.412 200.957 664.796 202.024C665.223 203.09 665.99 203.624 667.1 203.624Z" fill="#D466E5"/>
<path d="M697.967 180.392C698.052 179.581 697.988 178.984 697.775 178.6C697.562 178.173 697.114 177.96 696.431 177.96C696.004 177.96 695.407 178.066 694.639 178.28C693.871 178.45 693.081 178.706 692.271 179.048L691.631 177.32C692.697 176.808 694.169 176.274 696.047 175.72C697.924 175.122 699.908 174.824 701.999 174.824C703.791 174.824 705.263 175.165 706.415 175.848C707.567 176.53 708.399 177.512 708.911 178.792C709.423 180.029 709.615 181.544 709.487 183.336L708.207 202.216C708.122 203.41 708.164 204.264 708.335 204.776C708.506 205.288 708.932 205.544 709.615 205.544C710.34 205.544 711.044 205.373 711.727 205.032C712.409 204.648 713.049 204.221 713.647 203.752L714.415 205.224C713.945 205.693 713.113 206.312 711.919 207.08C710.724 207.805 709.337 208.445 707.759 209C706.223 209.597 704.687 209.896 703.151 209.896C701.145 209.896 699.61 209.554 698.543 208.872C697.519 208.146 696.858 207.122 696.559 205.8C696.26 204.434 696.196 202.792 696.367 200.872L697.967 180.392ZM696.431 164.328C696.431 162.664 697.049 161.256 698.287 160.104C699.567 158.952 701.316 158.376 703.535 158.376C704.857 158.376 706.031 158.653 707.055 159.208C708.121 159.762 708.954 160.509 709.551 161.448C710.191 162.344 710.511 163.346 710.511 164.456C710.511 166.248 709.871 167.698 708.591 168.808C707.311 169.917 705.647 170.472 703.599 170.472C701.38 170.472 699.631 169.896 698.351 168.744C697.071 167.549 696.431 166.077 696.431 164.328Z" fill="#D466E5"/>
<path d="M756.555 205.352C755.915 205.906 754.977 206.546 753.739 207.272C752.502 207.954 751.137 208.552 749.643 209.064C748.15 209.618 746.699 209.896 745.291 209.896C742.689 209.896 740.854 209.277 739.787 208.04C738.763 206.802 738.337 205.138 738.507 203.048L740.235 184.296C740.363 183.016 740.299 182.12 740.043 181.608C739.83 181.053 739.382 180.776 738.699 180.776C738.059 180.776 737.547 180.925 737.163 181.224C736.822 181.522 736.481 182.056 736.139 182.824C735.841 183.549 735.478 184.616 735.051 186.024L728.523 209H718.987L719.755 180.136C719.755 179.496 719.67 178.984 719.499 178.6C719.371 178.173 718.987 177.96 718.347 177.96C717.921 177.96 717.387 178.045 716.747 178.216C716.107 178.386 715.467 178.6 714.827 178.856L714.187 177.064C714.571 176.85 715.297 176.573 716.363 176.232C717.43 175.89 718.625 175.57 719.947 175.272C721.27 174.973 722.529 174.824 723.723 174.824C726.027 174.824 727.777 175.485 728.971 176.808C730.209 178.13 730.699 179.986 730.443 182.376L728.779 198.184L729.355 198.248L733.387 183.976C733.942 182.056 734.561 180.413 735.243 179.048C735.926 177.64 736.886 176.573 738.123 175.848C739.361 175.08 741.089 174.696 743.307 174.696C745.27 174.696 746.934 175.144 748.299 176.04C749.665 176.936 750.667 178.258 751.307 180.008C751.947 181.714 752.161 183.848 751.947 186.408L750.475 202.92C750.433 203.773 750.475 204.434 750.603 204.904C750.731 205.33 751.179 205.544 751.947 205.544C752.63 205.544 753.313 205.373 753.995 205.032C754.678 204.648 755.275 204.264 755.787 203.88L756.555 205.352Z" fill="#D466E5"/>
<path d="M791.709 202.984C791.666 203.922 791.752 204.648 791.965 205.16C792.178 205.672 792.669 205.928 793.437 205.928C794.205 205.928 794.951 205.714 795.677 205.288C796.445 204.818 797.085 204.392 797.597 204.008L798.365 205.416C797.938 205.842 797.191 206.418 796.125 207.144C795.058 207.869 793.799 208.509 792.349 209.064C790.898 209.618 789.362 209.896 787.741 209.896C786.205 209.896 784.882 209.597 783.773 209C782.663 208.402 781.853 207.506 781.341 206.312C780.829 205.117 780.765 203.645 781.149 201.896L783.965 186.92L783.389 186.856L780.509 197.032C780.039 198.653 779.57 200.232 779.101 201.768C778.674 203.304 778.077 204.69 777.309 205.928C776.541 207.122 775.538 208.082 774.301 208.808C773.064 209.533 771.442 209.896 769.437 209.896C766.877 209.896 764.786 209.298 763.165 208.104C761.586 206.866 760.413 205.202 759.645 203.112C758.877 200.978 758.493 198.589 758.493 195.944C758.493 193.042 758.855 190.333 759.581 187.816C760.349 185.256 761.458 183.016 762.909 181.096C764.359 179.133 766.151 177.597 768.285 176.488C770.418 175.378 772.893 174.824 775.709 174.824C777.33 174.824 778.781 175.037 780.061 175.464C781.383 175.848 782.536 176.232 783.517 176.616L791.453 174.568L792.541 175.272L791.709 202.984ZM773.853 203.624C774.536 203.624 775.111 203.474 775.581 203.176C776.093 202.834 776.541 202.28 776.925 201.512C777.309 200.701 777.714 199.613 778.141 198.248C778.61 196.84 779.122 195.069 779.677 192.936L783.517 178.728C782.578 178.173 781.618 177.746 780.637 177.448C779.698 177.106 778.802 176.936 777.949 176.936C776.797 176.936 775.794 177.384 774.941 178.28C774.13 179.133 773.447 180.392 772.893 182.056C772.338 183.72 771.911 185.768 771.613 188.2C771.314 190.589 771.101 193.32 770.973 196.392C770.93 198.098 770.994 199.485 771.165 200.552C771.335 201.618 771.634 202.408 772.061 202.92C772.53 203.389 773.128 203.624 773.853 203.624Z" fill="#D466E5"/>
<path d="M818.946 174.824C820.866 174.824 822.7 175.144 824.45 175.784C826.242 176.381 827.692 177.341 828.802 178.664C829.954 179.986 830.53 181.714 830.53 183.848C830.53 185.469 830.039 186.77 829.058 187.752C828.119 188.69 826.946 189.16 825.538 189.16C824.471 189.16 823.426 188.818 822.402 188.136C821.378 187.41 820.652 186.557 820.226 185.576L821.57 183.592C822.508 182.226 822.999 181.032 823.042 180.008C823.084 178.941 822.807 178.109 822.21 177.512C821.613 176.872 820.78 176.552 819.714 176.552C818.263 176.552 817.068 177.042 816.13 178.024C815.191 179.005 814.423 180.328 813.826 181.992C813.271 183.656 812.866 185.533 812.61 187.624C812.396 189.714 812.29 191.89 812.29 194.152C812.29 196.498 812.439 198.653 812.738 200.616C813.079 202.536 813.698 204.072 814.594 205.224C815.532 206.376 816.876 206.952 818.626 206.952C820.076 206.952 821.399 206.653 822.594 206.056C823.788 205.458 824.877 204.69 825.858 203.752C826.839 202.77 827.693 201.768 828.418 200.744L829.634 201.896C829.335 202.45 828.823 203.176 828.098 204.072C827.373 204.968 826.413 205.864 825.218 206.76C824.066 207.656 822.636 208.402 820.93 209C819.223 209.597 817.239 209.896 814.978 209.896C811.991 209.896 809.325 209.32 806.978 208.168C804.674 207.016 802.861 205.266 801.538 202.92C800.215 200.573 799.554 197.629 799.554 194.088C799.554 191.826 799.895 189.565 800.578 187.304C801.303 185 802.434 182.909 803.97 181.032C805.506 179.154 807.49 177.661 809.922 176.552C812.396 175.4 815.404 174.824 818.946 174.824Z" fill="#D466E5"/>
<path d="M838.654 180.392C838.74 179.581 838.676 178.984 838.462 178.6C838.249 178.173 837.801 177.96 837.118 177.96C836.692 177.96 836.094 178.066 835.326 178.28C834.558 178.45 833.769 178.706 832.958 179.048L832.318 177.32C833.385 176.808 834.857 176.274 836.734 175.72C838.612 175.122 840.596 174.824 842.686 174.824C844.478 174.824 845.95 175.165 847.102 175.848C848.254 176.53 849.086 177.512 849.598 178.792C850.11 180.029 850.302 181.544 850.174 183.336L848.894 202.216C848.809 203.41 848.852 204.264 849.022 204.776C849.193 205.288 849.62 205.544 850.302 205.544C851.028 205.544 851.732 205.373 852.414 205.032C853.097 204.648 853.737 204.221 854.334 203.752L855.102 205.224C854.633 205.693 853.801 206.312 852.606 207.08C851.412 207.805 850.025 208.445 848.446 209C846.91 209.597 845.374 209.896 843.838 209.896C841.833 209.896 840.297 209.554 839.23 208.872C838.206 208.146 837.545 207.122 837.246 205.8C836.948 204.434 836.884 202.792 837.054 200.872L838.654 180.392ZM837.118 164.328C837.118 162.664 837.737 161.256 838.974 160.104C840.254 158.952 842.004 158.376 844.222 158.376C845.545 158.376 846.718 158.653 847.742 159.208C848.809 159.762 849.641 160.509 850.238 161.448C850.878 162.344 851.198 163.346 851.198 164.456C851.198 166.248 850.558 167.698 849.278 168.808C847.998 169.917 846.334 170.472 844.286 170.472C842.068 170.472 840.318 169.896 839.038 168.744C837.758 167.549 837.118 166.077 837.118 164.328Z" fill="#D466E5"/>
<path d="M873.438 209.896C869.726 209.896 866.654 209.213 864.222 207.848C861.832 206.482 860.04 204.584 858.846 202.152C857.694 199.677 857.118 196.84 857.118 193.64C857.118 191.122 857.459 188.733 858.142 186.472C858.825 184.168 859.912 182.162 861.406 180.456C862.942 178.706 864.904 177.341 867.294 176.36C869.726 175.336 872.648 174.824 876.062 174.824C879.688 174.824 882.696 175.485 885.086 176.808C887.475 178.088 889.267 179.922 890.462 182.312C891.656 184.701 892.254 187.581 892.254 190.952C892.254 193.384 891.912 195.73 891.23 197.992C890.59 200.253 889.523 202.28 888.03 204.072C886.579 205.864 884.659 207.293 882.27 208.36C879.881 209.384 876.936 209.896 873.438 209.896ZM874.27 207.912C875.934 207.912 877.15 207.229 877.918 205.864C878.686 204.456 879.176 202.493 879.39 199.976C879.603 197.416 879.71 194.429 879.71 191.016C879.71 187.73 879.624 185.021 879.454 182.888C879.283 180.754 878.878 179.176 878.238 178.152C877.64 177.128 876.681 176.616 875.358 176.616C874.462 176.616 873.672 176.872 872.99 177.384C872.307 177.896 871.731 178.792 871.262 180.072C870.835 181.352 870.494 183.122 870.238 185.384C870.024 187.645 869.918 190.504 869.918 193.96C869.918 197.202 870.024 199.869 870.238 201.96C870.494 204.008 870.92 205.522 871.518 206.504C872.158 207.442 873.075 207.912 874.27 207.912ZM877.47 159.144C877.811 158.589 878.28 158.098 878.878 157.672C879.475 157.202 880.222 156.968 881.118 156.968C882.398 156.968 883.464 157.501 884.318 158.568C885.214 159.592 885.576 161.234 885.406 163.496L871.774 171.56L870.878 170.664L877.47 159.144Z" fill="#D466E5"/>
<path d="M936.805 205.352C936.165 205.906 935.227 206.546 933.989 207.272C932.752 207.954 931.387 208.552 929.893 209.064C928.4 209.618 926.949 209.896 925.541 209.896C922.939 209.896 921.104 209.277 920.037 208.04C919.013 206.802 918.587 205.138 918.757 203.048L920.485 184.296C920.613 183.016 920.549 182.12 920.293 181.608C920.08 181.053 919.632 180.776 918.949 180.776C918.309 180.776 917.797 180.925 917.413 181.224C917.072 181.522 916.731 182.056 916.389 182.824C916.091 183.549 915.728 184.616 915.301 186.024L908.773 209H899.237L900.005 180.136C900.005 179.496 899.92 178.984 899.749 178.6C899.621 178.173 899.237 177.96 898.597 177.96C898.171 177.96 897.637 178.045 896.997 178.216C896.357 178.386 895.717 178.6 895.077 178.856L894.437 177.064C894.821 176.85 895.547 176.573 896.613 176.232C897.68 175.89 898.875 175.57 900.197 175.272C901.52 174.973 902.779 174.824 903.973 174.824C906.277 174.824 908.027 175.485 909.221 176.808C910.459 178.13 910.949 179.986 910.693 182.376L909.029 198.184L909.605 198.248L913.637 183.976C914.192 182.056 914.811 180.413 915.493 179.048C916.176 177.64 917.136 176.573 918.373 175.848C919.611 175.08 921.339 174.696 923.557 174.696C925.52 174.696 927.184 175.144 928.549 176.04C929.915 176.936 930.917 178.258 931.557 180.008C932.197 181.714 932.411 183.848 932.197 186.408L930.725 202.92C930.683 203.773 930.725 204.434 930.853 204.904C930.981 205.33 931.429 205.544 932.197 205.544C932.88 205.544 933.563 205.373 934.245 205.032C934.928 204.648 935.525 204.264 936.037 203.88L936.805 205.352Z" fill="#D466E5"/>
<path d="M102.02 14.12C114.74 14.12 124.52 16.88 131.36 22.4C138.32 27.92 141.8 35.24 141.8 44.36C141.8 47.96 141.26 51.74 140.18 55.7C136.82 67.7 130.16 76.58 120.2 82.34C110.36 88.1 97.8799 90.98 82.7599 90.98H64.2199L58.0999 112.76C57.8599 113.48 57.7399 114.44 57.7399 115.64C57.7399 117.32 58.0999 118.7 58.8199 119.78C59.6599 120.86 60.8599 122.12 62.4199 123.56C63.7399 124.76 64.6399 125.66 65.1199 126.26C65.5999 126.86 65.8399 127.58 65.8399 128.42C65.8399 130.46 64.8799 131.9 62.9599 132.74C61.0399 133.58 58.2199 134 54.4999 134H9.31991C6.19991 134 3.85991 133.46 2.29991 132.38C0.73991 131.18 0.19991 129.56 0.67991 127.52C0.91991 126.44 1.39991 125.6 2.11991 125C2.71991 124.28 3.67991 123.5 4.99991 122.66C7.03991 121.46 8.65991 120.2 9.85991 118.88C11.0599 117.56 12.0199 115.52 12.7399 112.76L34.6999 35.18C35.1799 33.62 35.4199 32.12 35.4199 30.68C35.4199 29.36 35.1799 28.28 34.6999 27.44C34.3399 26.48 33.7999 25.4 33.0799 24.2C31.9999 22.64 31.4599 21.38 31.4599 20.42C31.4599 20.06 31.5799 19.4 31.8199 18.44C32.2999 16.88 33.3199 15.8 34.8799 15.2C36.5599 14.48 39.0799 14.12 42.4399 14.12H102.02ZM97.3399 52.46C98.6599 48.02 99.3199 44.12 99.3199 40.76C99.3199 33.8 96.0799 30.32 89.5999 30.32H81.4999L68.7199 74.78H76.6399C81.6799 74.78 85.7599 73.22 88.8799 70.1C92.1199 66.86 94.9399 60.98 97.3399 52.46Z" fill="white"/>
<path d="M192.131 38.78C205.931 38.78 216.971 41.36 225.251 46.52C233.531 51.56 237.671 59.3 237.671 69.74C237.671 73.7 236.951 78.2 235.511 83.24L228.131 108.08C228.011 108.56 227.951 109.16 227.951 109.88C227.951 111.8 228.731 112.76 230.291 112.76C231.731 112.76 232.931 112.16 233.891 110.96C234.971 109.64 235.691 108.98 236.051 108.98C236.651 108.98 237.131 109.4 237.491 110.24C237.971 111.08 238.211 112.04 238.211 113.12C238.331 116.36 237.071 119.66 234.431 123.02C231.911 126.38 228.491 129.14 224.171 131.3C219.851 133.46 215.111 134.54 209.951 134.54C203.711 134.54 198.371 133.4 193.931 131.12C189.491 128.84 186.431 125.48 184.751 121.04C181.151 125.36 176.891 128.72 171.971 131.12C167.051 133.4 161.771 134.54 156.131 134.54C149.771 134.54 144.431 133.34 140.111 130.94C135.791 128.42 132.551 125.24 130.391 121.4C128.351 117.44 127.331 113.3 127.331 108.98C127.331 107.06 127.511 105.2 127.871 103.4C129.791 95.12 133.931 88.88 140.291 84.68C146.771 80.48 154.451 78.38 163.331 78.38C173.291 78.38 183.071 79.94 192.671 83.06L197.171 71.18C198.731 66.14 199.511 62.24 199.511 59.48C199.391 56.6 198.431 54.44 196.631 53C194.831 51.56 192.071 50.84 188.351 50.84C189.071 52.76 189.431 54.74 189.431 56.78C189.431 61.22 187.751 65.06 184.391 68.3C181.031 71.54 176.231 73.16 169.991 73.16C164.111 73.16 159.491 71.9 156.131 69.38C152.891 66.74 151.271 63.5 151.271 59.66C151.271 53.66 154.631 48.68 161.351 44.72C168.071 40.76 178.331 38.78 192.131 38.78ZM182.051 93.32C178.691 93.32 175.931 94.64 173.771 97.28C171.731 99.8 170.711 102.56 170.711 105.56C170.711 107.48 171.131 109.04 171.971 110.24C172.931 111.44 174.251 112.04 175.931 112.04C177.491 112.04 179.171 111.44 180.971 110.24C182.891 108.92 184.271 107 185.111 104.48L188.891 93.86C186.851 93.5 184.571 93.32 182.051 93.32Z" fill="white"/>
<path d="M357.064 109.16C356.824 109.64 356.704 110.36 356.704 111.32C356.704 112.16 356.884 112.82 357.244 113.3C357.724 113.78 358.324 114.02 359.044 114.02C360.484 114.02 361.684 113.42 362.644 112.22C363.724 110.9 364.444 110.24 364.804 110.24C365.404 110.24 365.884 110.66 366.244 111.5C366.604 112.22 366.784 113.12 366.784 114.2C366.904 117.68 365.764 121.1 363.364 124.46C360.964 127.7 357.424 130.4 352.744 132.56C348.184 134.6 342.664 135.62 336.184 135.62C328.264 135.62 321.964 133.82 317.284 130.22C312.604 126.5 310.204 121.58 310.084 115.46C310.084 111.02 311.164 106.04 313.324 100.52L323.224 74.6C323.824 73.04 324.124 71.78 324.124 70.82C324.124 69.26 323.584 68.06 322.504 67.22C321.544 66.26 320.344 65.78 318.904 65.78C316.264 65.78 313.744 67.04 311.344 69.56C308.944 71.96 307.204 74.96 306.124 78.56L294.964 115.28C294.484 116.6 294.244 117.86 294.244 119.06C294.244 120.5 294.544 121.7 295.144 122.66C295.744 123.5 296.584 124.4 297.664 125.36C298.504 126.08 299.104 126.74 299.464 127.34C299.824 127.94 299.884 128.66 299.644 129.5C299.164 131.06 298.024 132.2 296.224 132.92C294.424 133.64 291.604 134 287.764 134H246.724C243.604 134 241.384 133.52 240.064 132.56C238.624 131.48 238.084 130.1 238.444 128.42C238.924 126.98 240.184 125.72 242.224 124.64C244.024 123.68 245.524 122.54 246.724 121.22C247.924 119.9 248.944 117.8 249.784 114.92L265.804 62.9C266.044 62.3 266.164 61.46 266.164 60.38C266.164 59.06 265.864 58.04 265.264 57.32C264.784 56.6 263.944 55.7 262.744 54.62C261.544 53.66 260.704 52.82 260.224 52.1C259.744 51.38 259.684 50.42 260.044 49.22C260.764 46.46 264.544 44.06 271.384 42.02C278.224 39.86 285.364 38.78 292.804 38.78C298.804 38.78 303.544 40.46 307.024 43.82C310.504 47.06 312.064 51.62 311.704 57.5C316.624 50.42 321.844 45.56 327.364 42.92C332.884 40.16 338.884 38.78 345.364 38.78C352.684 38.78 358.564 41 363.004 45.44C367.564 49.88 369.844 55.64 369.844 62.72C369.844 66.44 369.244 70.1 368.044 73.7L357.064 109.16Z" fill="white"/>
<path d="M454.952 41.12C457.232 41.12 458.972 41.6 460.172 42.56C461.492 43.52 462.152 44.84 462.152 46.52C462.152 47 462.032 47.84 461.792 49.04C460.232 54.32 456.632 56.96 450.992 56.96H440.552L427.052 101.42C426.452 103.22 426.152 105.08 426.152 107C426.152 109.16 426.752 110.66 427.952 111.5C429.152 112.34 430.832 112.76 432.992 112.76C434.912 112.76 437.312 112.52 440.192 112.04C441.632 111.68 442.892 111.5 443.972 111.5C444.812 111.5 445.412 111.8 445.772 112.4C446.252 112.88 446.492 113.54 446.492 114.38C446.612 116.78 444.812 119.72 441.092 123.2C437.492 126.56 432.572 129.5 426.332 132.02C420.092 134.42 413.192 135.62 405.632 135.62C397.472 135.62 390.932 133.76 386.012 130.04C381.092 126.32 378.632 121.22 378.632 114.74C378.632 111.74 379.112 108.86 380.072 106.1L391.592 70.46C392.192 68.42 392.492 66.8 392.492 65.6C392.492 63.2 391.892 61.16 390.692 59.48C389.612 57.8 388.052 56.06 386.012 54.26C384.212 52.58 382.952 51.2 382.232 50.12C381.512 48.92 381.332 47.54 381.692 45.98C382.172 44.42 383.192 43.22 384.752 42.38C386.312 41.54 388.772 41.12 392.132 41.12H402.212L413.552 29.78C417.512 25.82 421.112 23.06 424.352 21.5C427.712 19.94 432.032 19.16 437.312 19.16C444.872 19.16 448.652 22.04 448.652 27.8C448.652 29.6 448.412 31.28 447.932 32.84L445.412 41.12H454.952Z" fill="white"/>
<path d="M562.271 109.16C562.031 110.12 561.911 110.84 561.911 111.32C561.911 112.16 562.091 112.82 562.451 113.3C562.931 113.78 563.532 114.02 564.252 114.02C565.692 114.02 566.892 113.42 567.852 112.22C568.932 110.9 569.652 110.24 570.012 110.24C570.612 110.24 571.092 110.66 571.452 111.5C571.932 112.22 572.172 113.12 572.172 114.2C572.292 117.56 571.092 120.92 568.572 124.28C566.052 127.52 562.512 130.22 557.952 132.38C553.392 134.54 548.291 135.62 542.651 135.62C535.571 135.62 529.932 134.18 525.732 131.3C521.532 128.42 518.832 124.64 517.632 119.96C513.312 124.76 508.511 128.42 503.231 130.94C498.071 133.34 492.791 134.54 487.391 134.54C478.991 134.54 471.911 132.5 466.151 128.42C460.511 124.22 457.691 118.4 457.691 110.96C457.691 107.6 458.291 104.12 459.491 100.52L471.011 62.9C471.371 61.82 471.551 60.92 471.551 60.2C471.551 58.88 471.251 57.86 470.651 57.14C470.051 56.3 469.151 55.46 467.951 54.62C466.751 53.66 465.911 52.82 465.431 52.1C464.951 51.38 464.891 50.42 465.251 49.22C465.971 46.46 469.751 44.06 476.591 42.02C483.431 39.86 490.571 38.78 498.011 38.78C504.971 38.78 510.071 40.1 513.311 42.74C516.551 45.38 518.172 48.98 518.172 53.54C518.172 56.3 517.751 58.94 516.911 61.46L505.571 98.9C505.091 100.22 504.851 101.48 504.851 102.68C504.851 104.36 505.331 105.62 506.291 106.46C507.251 107.3 508.511 107.72 510.071 107.72C512.351 107.72 514.211 107.06 515.651 105.74C517.091 104.42 518.531 102.2 519.971 99.08L530.951 62.9C531.311 61.82 531.492 60.92 531.492 60.2C531.492 58.88 531.191 57.86 530.591 57.14C529.991 56.3 529.152 55.46 528.072 54.62C526.872 53.66 526.032 52.82 525.552 52.1C525.072 51.38 525.012 50.42 525.372 49.22C525.972 46.46 529.691 44.06 536.531 42.02C543.371 39.86 550.512 38.78 557.952 38.78C564.912 38.78 570.012 40.1 573.252 42.74C576.612 45.38 578.292 48.92 578.292 53.36C578.292 55.64 577.812 58.34 576.852 61.46L562.271 109.16Z" fill="white"/>
<path d="M670.55 38.06C679.43 38.06 686.51 41.24 691.79 47.6C697.19 53.96 699.89 62.36 699.89 72.8C699.89 78.2 699.23 83.48 697.91 88.64C694.07 104.12 687.47 115.82 678.11 123.74C668.87 131.66 658.19 135.62 646.07 135.62C639.23 135.62 633.29 134.48 628.25 132.2C623.33 129.8 619.37 126.44 616.37 122.12L609.89 127.7C607.37 129.86 604.91 131.48 602.51 132.56C600.11 133.52 597.35 134 594.23 134H586.31C583.31 134 580.97 133.4 579.29 132.2C577.73 130.88 576.95 129.02 576.95 126.62C576.95 125.54 577.13 124.28 577.49 122.84L607.55 25.1C607.91 24.02 608.09 23.12 608.09 22.4C608.09 20.36 606.83 18.44 604.31 16.64C603.11 15.56 602.27 14.72 601.79 14.12C601.31 13.4 601.25 12.5 601.61 11.42C602.45 8.65998 606.23 6.25997 612.95 4.21998C619.79 2.05998 626.93 0.97998 634.37 0.97998C641.33 0.97998 646.43 2.35998 649.67 5.11998C653.03 7.75998 654.71 11.36 654.71 15.92C654.71 18.44 654.29 20.96 653.45 23.48L645.89 47.96C652.85 41.36 661.07 38.06 670.55 38.06ZM650.21 87.56C652.61 79.4 653.81 72.8 653.81 67.76C653.81 62.24 652.19 59.48 648.95 59.48C646.07 59.48 643.37 60.98 640.85 63.98L629.15 102.14L628.07 105.56C627.47 107.36 627.17 109.22 627.17 111.14C627.17 115.34 629.15 117.44 633.11 117.44C635.99 117.44 638.75 115.34 641.39 111.14C644.03 106.94 646.97 99.08 650.21 87.56Z" fill="white"/>
<path d="M761.586 37.88C776.826 37.88 787.866 40.34 794.706 45.26C801.546 50.06 804.966 56.24 804.966 63.8C804.966 66.08 804.726 68.18 804.246 70.1C802.446 78.02 797.406 83.72 789.126 87.2C780.966 90.56 771.306 92.24 760.146 92.24C754.506 92.24 749.226 91.88 744.306 91.16C744.186 97.4 745.866 101.78 749.346 104.3C752.826 106.82 757.686 108.08 763.926 108.08C766.806 108.08 769.566 107.78 772.206 107.18C774.846 106.46 778.206 105.44 782.286 104.12C785.646 102.92 787.926 102.32 789.126 102.32C790.446 102.32 791.106 103.1 791.106 104.66C791.226 108.86 789.666 113.3 786.426 117.98C783.186 122.54 778.386 126.44 772.026 129.68C765.666 132.92 757.986 134.54 748.986 134.54C735.666 134.54 724.746 131.18 716.226 124.46C707.706 117.74 703.446 107.96 703.446 95.12C703.446 91.52 703.926 87.32 704.886 82.52C707.886 67.76 714.426 56.66 724.506 49.22C734.706 41.66 747.066 37.88 761.586 37.88ZM745.566 80.36C746.046 80.48 746.706 80.54 747.546 80.54C752.586 80.54 756.426 78.2 759.066 73.52C761.706 68.84 762.966 63.62 762.846 57.86C762.726 54.5 761.766 52.82 759.966 52.82C758.646 52.82 757.086 53.9 755.286 56.06C753.486 58.1 751.686 61.22 749.886 65.42C748.206 69.62 746.766 74.6 745.566 80.36Z" fill="white"/>
</svg>
